<svg width="40" height="40" viewBox="0 0 40 40" fill="none" xmlns="http://www.w3.org/2000/svg">
<g clip-path="url(#clip0_3235_645)">
<path fill-rule="evenodd" clip-rule="evenodd" d="M31.4872 23.7068C29.9226 24.5322 28.1408 24.9995 26.2508 24.9995C20.0418 24.9995 15.0009 19.9586 15.0009 13.7495C15.0009 7.54046 20.0418 2.49957 26.2508 2.49957C31.984 2.49957 36.7208 6.79774 37.4135 12.3445C37.499 13.0291 37.0126 13.6545 36.3281 13.74C35.6435 13.8254 35.0185 13.3391 34.9331 12.6545C34.394 8.34092 30.7095 4.99956 26.2508 4.99956C21.4218 4.99956 17.5009 8.92046 17.5009 13.7495C17.5009 18.5786 21.4218 22.4995 26.2508 22.4995C27.8436 22.4995 29.3376 22.0731 30.6245 21.3281C30.7535 21.2536 31.094 21.0995 31.6249 21.1731C32.1063 21.2395 33.2899 21.565 34.3849 21.8836C34.0663 20.7886 33.7408 19.605 33.6744 19.1236C33.6008 18.5927 33.7549 18.2522 33.8294 18.1232C34.0322 17.7732 34.2113 17.4082 34.3644 17.03C34.6235 16.3904 35.3531 16.0818 35.9922 16.3409C36.6317 16.6 36.9403 17.3295 36.6812 17.9691C36.5403 18.3168 36.3822 18.6563 36.2081 18.9859L37.4435 23.3749C37.5831 23.819 37.464 24.304 37.1349 24.6336C36.8053 24.9627 36.3203 25.0818 35.8762 24.9422L31.4872 23.7068Z" fill="white"/>
<path fill-rule="evenodd" clip-rule="evenodd" d="M22.5 12.5H30C30.69 12.5 31.25 11.94 31.25 11.25C31.25 10.56 30.69 10 30 10H22.5C21.81 10 21.25 10.56 21.25 11.25C21.25 11.94 21.81 12.5 22.5 12.5Z" fill="white"/>
<path fill-rule="evenodd" clip-rule="evenodd" d="M22.5 17.5H30C30.69 17.5 31.25 16.94 31.25 16.25C31.25 15.56 30.69 15 30 15H22.5C21.81 15 21.25 15.56 21.25 16.25C21.25 16.94 21.81 17.5 22.5 17.5Z" fill="white"/>
<path fill-rule="evenodd" clip-rule="evenodd" d="M3.70687 25.5438C2.93625 24.0731 2.5 22.3994 2.5 20.625C2.5 14.7606 7.26062 10 13.125 10C14.4438 10 15.7062 10.2412 16.8719 10.6806C17.4412 10.8956 17.7731 11.4894 17.6581 12.0869C17.5544 12.625 17.5 13.1813 17.5 13.75C17.5 17.3256 19.6494 20.4025 22.725 21.76C23.2819 22.0056 23.5806 22.6169 23.4331 23.2069C22.2781 27.825 18.0981 31.25 13.125 31.25C11.3506 31.25 9.67688 30.8137 8.20625 30.0431L4.12437 31.1925C3.68 31.3319 3.19562 31.2131 2.86625 30.8838C2.53687 30.5544 2.41812 30.07 2.5575 29.6256L3.70687 25.5438ZM15.0463 12.7294C14.4306 12.5794 13.7869 12.5 13.125 12.5C8.64062 12.5 5 16.1406 5 20.625C5 22.1038 5.39563 23.4913 6.0875 24.6863C6.16125 24.8131 6.31562 25.15 6.24312 25.6738C6.18312 26.1069 5.9 27.1456 5.61313 28.1369C6.60438 27.85 7.64312 27.5669 8.07625 27.5069C8.6 27.4344 8.93687 27.5888 9.06375 27.6625C10.2587 28.3544 11.6462 28.75 13.125 28.75C16.5819 28.75 19.5369 26.5869 20.71 23.5413C17.3012 21.6075 15 17.9456 15 13.75C15 13.4062 15.0156 13.0656 15.0463 12.7294Z" fill="white"/>
<path fill-rule="evenodd" clip-rule="evenodd" d="M22.2156 22.9013C23.45 23.4469 24.815 23.75 26.25 23.75C28.0706 23.75 29.7788 23.2625 31.25 22.4106C31.3188 22.3706 31.705 22.4469 32.235 22.5806C33.1913 23.9825 33.75 25.6763 33.75 27.5C33.75 29.0931 33.3231 30.5875 32.5781 31.875C32.4469 32.1006 33.75 36.25 33.75 36.25C33.75 36.25 29.6006 34.9469 29.375 35.0781C28.0875 35.8231 26.5931 36.25 25 36.25C20.82 36.25 17.32 33.3125 16.455 29.3906C19.2938 28.31 21.4738 25.89 22.2206 22.9038L22.2156 22.9013Z" fill="#DB2A6B"/>
<path fill-rule="evenodd" clip-rule="evenodd" d="M20.9806 22.7063C20.9969 22.6013 21.0275 22.4963 21.0731 22.3938C21.3531 21.7638 22.09 21.4794 22.7206 21.7581C23.8006 22.2356 24.9944 22.5 26.25 22.5C27.8425 22.5 29.3369 22.0738 30.6238 21.3288C30.7556 21.2525 30.9944 21.1419 31.3563 21.1506C31.5531 21.155 31.9888 21.2294 32.54 21.3681C32.8369 21.4431 33.0956 21.6238 33.2681 21.8763C34.3606 23.4794 35 25.4156 35 27.5C35 29.1588 34.595 30.7231 33.8794 32.1013L34.9425 35.8756C35.0819 36.32 34.9631 36.8044 34.6338 37.1338C34.3044 37.4631 33.82 37.5819 33.3756 37.4425L29.6013 36.3794C28.2231 37.095 26.6588 37.5 25 37.5C20.2225 37.5 16.2231 34.1419 15.2344 29.6594C15.1013 29.0544 15.4313 28.4425 16.0106 28.2219C18.4369 27.2988 20.3088 25.2456 20.9806 22.7063ZM31.4738 23.7138C29.9125 24.535 28.135 25 26.25 25C25.1238 25 24.0356 24.8338 23.0094 24.525C22.0569 26.935 20.2481 28.915 17.9588 30.0869C19.0131 32.9538 21.77 35 25 35C26.365 35 27.6456 34.635 28.7488 33.9963C28.8744 33.9231 29.2063 33.7694 29.7238 33.8406C30.1088 33.8938 31.005 34.1356 31.8894 34.3894C31.6356 33.505 31.3938 32.6088 31.3406 32.2238C31.2694 31.7063 31.4231 31.3744 31.4963 31.2488C32.135 30.1456 32.5 28.865 32.5 27.5C32.5 26.1194 32.1263 24.825 31.4738 23.7138Z" fill="white"/>
</g>
<defs>
<clipPath id="clip0_3235_645">
<rect width="40" height="40" fill="white"/>
</clipPath>
</defs>
</svg>
