<svg width="40" height="40" viewBox="0 0 40 40" fill="none" xmlns="http://www.w3.org/2000/svg">
<g clip-path="url(#clip0_3235_657)">
<path fill-rule="evenodd" clip-rule="evenodd" d="M36.25 18.75V11.25C36.25 9.5925 35.5913 8.0025 34.4194 6.83063C33.2475 5.65875 31.6575 5 30 5C24.4513 5 15.5487 5 10 5C8.3425 5 6.75249 5.65875 5.58062 6.83063C4.40874 8.0025 3.75 9.5925 3.75 11.25C3.75 16.7987 3.75 25.7013 3.75 31.25C3.75 32.9075 4.40874 34.4975 5.58062 35.6694C6.75249 36.8413 8.3425 37.5 10 37.5C15.5487 37.5 24.4513 37.5 30 37.5C31.6575 37.5 33.2475 36.8413 34.4194 35.6694C35.5913 34.4975 36.25 32.9075 36.25 31.25C36.25 30.85 36.25 24.1825 36.25 23.75C36.25 23.06 35.69 22.5 35 22.5C34.31 22.5 33.75 23.06 33.75 23.75V31.25C33.75 32.2444 33.355 33.1981 32.6519 33.9019C31.9481 34.605 30.9944 35 30 35C24.4513 35 15.5487 35 10 35C9.00563 35 8.05187 34.605 7.34812 33.9019C6.64499 33.1981 6.25 32.2444 6.25 31.25C6.25 25.7013 6.25 16.7987 6.25 11.25C6.25 10.2556 6.64499 9.30188 7.34812 8.59813C8.05187 7.895 9.00563 7.5 10 7.5C15.5487 7.5 24.4513 7.5 30 7.5C30.9944 7.5 31.9481 7.895 32.6519 8.59813C33.355 9.30188 33.75 10.2556 33.75 11.25C33.75 15.3269 33.75 13.7131 33.75 18.75C33.75 19.44 34.31 20 35 20C35.69 20 36.25 19.44 36.25 18.75Z" fill="white"/>
<path fill-rule="evenodd" clip-rule="evenodd" d="M35 11.2492C35 9.92319 34.4731 8.65133 33.5356 7.71363C32.5981 6.77614 31.3263 6.24927 30 6.24927C24.4513 6.24927 15.5487 6.24927 10 6.24927C8.67375 6.24927 7.40187 6.77614 6.46437 7.71363C5.52687 8.65133 5 9.92319 5 11.2492C5 13.7492 5 16.2492 5 16.2492H35V11.2492Z" fill="#DB2A6B"/>
<path fill-rule="evenodd" clip-rule="evenodd" d="M36.25 11.2492C36.25 9.59154 35.5913 8.00198 34.4194 6.82991C33.2475 5.65783 31.6575 4.9993 30 4.9993C24.4513 4.9993 15.5487 4.9993 10 4.9993C8.3425 4.9993 6.75249 5.65783 5.58062 6.82991C4.40874 8.00198 3.75 9.59154 3.75 11.2492C3.75 13.7492 3.75 16.2492 3.75 16.2492C3.75 16.9396 4.30937 17.4992 5 17.4992H35C35.6906 17.4992 36.25 16.9396 36.25 16.2492V11.2492ZM33.75 14.9992V11.2492C33.75 10.2547 33.355 9.30092 32.6519 8.5976C31.9481 7.89427 30.9944 7.49927 30 7.49927C24.4513 7.49927 15.5487 7.49927 10 7.49927C9.00563 7.49927 8.05187 7.89427 7.34812 8.5976C6.64499 9.30092 6.25 10.2547 6.25 11.2492V14.9992H33.75Z" fill="white"/>
<path fill-rule="evenodd" clip-rule="evenodd" d="M12.5009 12.5H27.501C28.191 12.5 28.7512 11.94 28.7512 11.25C28.7512 10.56 28.191 10 27.501 10H12.5009C11.8109 10 11.2507 10.56 11.2507 11.25C11.2507 11.94 11.8109 12.5 12.5009 12.5Z" fill="white"/>
<path fill-rule="evenodd" clip-rule="evenodd" d="M13.75 16.25V36.25C13.75 36.94 14.31 37.5 15 37.5C15.69 37.5 16.25 36.94 16.25 36.25V16.25C16.25 15.56 15.69 15 15 15C14.31 15 13.75 15.56 13.75 16.25Z" fill="white"/>
<path fill-rule="evenodd" clip-rule="evenodd" d="M23.75 16.25V36.25C23.75 36.94 24.31 37.5 25 37.5C25.69 37.5 26.25 36.94 26.25 36.25V16.25C26.25 15.56 25.69 15 25 15C24.31 15 23.75 15.56 23.75 16.25Z" fill="white"/>
<path fill-rule="evenodd" clip-rule="evenodd" d="M35 25H5C4.31 25 3.75031 25.56 3.75031 26.25C3.75031 26.94 4.31 27.5 5 27.5H35C35.69 27.5 36.2497 26.94 36.2497 26.25C36.2497 25.56 35.69 25 35 25Z" fill="white"/>
<path fill-rule="evenodd" clip-rule="evenodd" d="M13.75 7.49999V3.74999C13.75 3.05999 13.19 2.50031 12.5 2.50031C11.81 2.50031 11.25 3.05999 11.25 3.74999V7.49999C11.25 8.18999 11.81 8.74967 12.5 8.74967C13.19 8.74967 13.75 8.18999 13.75 7.49999Z" fill="white"/>
<path fill-rule="evenodd" clip-rule="evenodd" d="M28.75 7.49999V3.74999C28.75 3.05999 28.19 2.50031 27.5 2.50031C26.81 2.50031 26.25 3.05999 26.25 3.74999V7.49999C26.25 8.18999 26.81 8.74967 27.5 8.74967C28.19 8.74967 28.75 8.18999 28.75 7.49999Z" fill="white"/>
</g>
<defs>
<clipPath id="clip0_3235_657">
<rect width="40" height="40" fill="white"/>
</clipPath>
</defs>
</svg>
