<svg width="40" height="40" viewBox="0 0 40 40" fill="none" xmlns="http://www.w3.org/2000/svg">
<g clip-path="url(#clip0_3235_672)">
<path fill-rule="evenodd" clip-rule="evenodd" d="M36.25 10C36.25 8.3425 35.5912 6.75281 34.4194 5.58063C33.2475 4.40844 31.6575 3.75 30 3.75C24.4513 3.75 15.5487 3.75 10 3.75C8.3425 3.75 6.7525 4.40844 5.58062 5.58063C4.40875 6.75281 3.75 8.3425 3.75 10C3.75 14.3628 3.75 20 3.75 20C3.75 20.6903 4.30937 21.25 5 21.25H35C35.6906 21.25 36.25 20.6903 36.25 20V10ZM33.75 18.75V10C33.75 9.00531 33.355 8.05156 32.6519 7.34844C31.9481 6.645 30.9944 6.25 30 6.25C24.4513 6.25 15.5487 6.25 10 6.25C9.00563 6.25 8.05188 6.645 7.34812 7.34844C6.645 8.05156 6.25 9.00531 6.25 10V18.75H33.75Z" fill="white"/>
<path fill-rule="evenodd" clip-rule="evenodd" d="M6.25 21.25V30C6.25 30.9947 6.645 31.9484 7.34812 32.6516C8.05188 33.355 9.00563 33.75 10 33.75C15.5487 33.75 24.4513 33.75 30 33.75C30.9944 33.75 31.9481 33.355 32.6519 32.6516C33.355 31.9484 33.75 30.9947 33.75 30C33.75 29.31 34.31 28.75 35 28.75C35.69 28.75 36.25 29.31 36.25 30C36.25 31.6575 35.5912 33.2472 34.4194 34.4194C33.2475 35.5916 31.6575 36.25 30 36.25C24.4513 36.25 15.5487 36.25 10 36.25C8.3425 36.25 6.7525 35.5916 5.58062 34.4194C4.40875 33.2472 3.75 31.6575 3.75 30V20C3.75 19.3097 4.30937 18.75 5 18.75H35C35.6906 18.75 36.25 19.3097 36.25 20C36.25 20 36.25 22.2462 36.25 25C36.25 25.69 35.69 26.25 35 26.25C34.31 26.25 33.75 25.69 33.75 25V21.25H6.25Z" fill="white"/>
<path d="M15 10H10V15H15V10Z" fill="#DB2A6B"/>
<path fill-rule="evenodd" clip-rule="evenodd" d="M16.25 10C16.25 9.30937 15.6906 8.75 15 8.75H10C9.30937 8.75 8.75 9.30937 8.75 10V15C8.75 15.6906 9.30937 16.25 10 16.25H15C15.6906 16.25 16.25 15.6906 16.25 15V10ZM11.25 11.25V13.75H13.75V11.25H11.25Z" fill="white"/>
<path fill-rule="evenodd" clip-rule="evenodd" d="M20 11.25H30.0001C30.6901 11.25 31.2501 10.69 31.2501 10C31.2501 9.31 30.6901 8.75 30.0001 8.75H20C19.31 8.75 18.75 9.31 18.75 10C18.75 10.69 19.31 11.25 20 11.25Z" fill="white"/>
<path fill-rule="evenodd" clip-rule="evenodd" d="M20 16.25H30.0001C30.6901 16.25 31.2501 15.69 31.2501 15C31.2501 14.31 30.6901 13.75 30.0001 13.75H20C19.31 13.75 18.75 14.31 18.75 15C18.75 15.69 19.31 16.25 20 16.25Z" fill="white"/>
<path fill-rule="evenodd" clip-rule="evenodd" d="M33.5356 33.5356C32.5981 34.4731 31.3263 35 30 35H20L16.25 31.25L23.75 23.75L33.5356 33.5356ZM20 35H10C8.67376 35 7.40189 34.4731 6.46439 33.5356L12.5 27.5L20 35Z" fill="#DB2A6B"/>
<path fill-rule="evenodd" clip-rule="evenodd" d="M16.25 29.4825L22.8663 22.8662C23.3544 22.3781 24.1456 22.3781 24.6338 22.8662L34.4194 32.6519C34.9063 33.1387 34.9075 33.9281 34.4219 34.4169C34.4219 34.4169 34.4219 34.4169 34.4194 34.4194C33.2475 35.5912 31.6575 36.25 30 36.25H20H10C8.3425 36.25 6.7525 35.5912 5.58063 34.4194L5.57813 34.4169C5.09251 33.9281 5.09375 33.1387 5.58063 32.6519L11.6163 26.6162C12.1044 26.1281 12.8956 26.1281 13.3838 26.6162L16.25 29.4825ZM31.6163 33.3838L23.75 25.5175L18.0175 31.25L20.5175 33.75H30C30.565 33.75 31.1169 33.6225 31.6163 33.3838ZM16.9825 33.75L12.5 29.2675L8.38375 33.3838C8.88375 33.6225 9.43563 33.75 10 33.75H16.9825Z" fill="white"/>
</g>
<defs>
<clipPath id="clip0_3235_672">
<rect width="40" height="40" fill="white"/>
</clipPath>
</defs>
</svg>
