<svg width="62" height="62" viewBox="0 0 62 62" fill="none" xmlns="http://www.w3.org/2000/svg">
<path d="M55 25C53.7621 25.0035 52.5556 25.3898 51.5459 26.1059C50.5362 26.822 49.7726 27.8329 49.36 29H46.86C46.4136 25.48 44.8098 22.2082 42.3008 19.6992C39.7919 17.1902 36.5201 15.5864 33 15.14V12.64C34.3344 12.1682 35.4591 11.2399 36.1753 10.019C36.8914 8.79823 37.1529 7.36353 36.9136 5.96854C36.6743 4.57355 35.9495 3.30808 34.8673 2.3958C33.7852 1.48351 32.4154 0.983154 31 0.983154C29.5846 0.983154 28.2148 1.48351 27.1327 2.3958C26.0506 3.30808 25.3258 4.57355 25.0864 5.96854C24.8471 7.36353 25.1086 8.79823 25.8247 10.019C26.5409 11.2399 27.6656 12.1682 29 12.64V15.14C25.48 15.5864 22.2082 17.1902 19.6992 19.6992C17.1902 22.2082 15.5864 25.48 15.14 29H12.64C12.1682 27.6656 11.2399 26.5409 10.019 25.8247C8.79823 25.1086 7.36353 24.8471 5.96854 25.0864C4.57355 25.3258 3.30808 26.0506 2.3958 27.1327C1.48351 28.2148 0.983154 29.5846 0.983154 31C0.983154 32.4154 1.48351 33.7852 2.3958 34.8673C3.30808 35.9495 4.57355 36.6743 5.96854 36.9136C7.36353 37.1529 8.79823 36.8914 10.019 36.1753C11.2399 35.4591 12.1682 34.3344 12.64 33H15.14C15.4403 35.3622 16.264 37.6276 17.5512 39.6309C18.8383 41.6343 20.5563 43.3251 22.58 44.58L17.56 49.62C16.4421 49.1102 15.1973 48.9464 13.9856 49.1495C12.7738 49.3526 11.6505 49.9135 10.76 50.76V50.76C9.97808 51.535 9.42446 52.5102 9.15975 53.5788C8.89505 54.6475 8.92946 55.7683 9.25922 56.8187C9.58899 57.8691 10.2014 58.8085 11.0294 59.534C11.8574 60.2596 12.869 60.7434 13.9536 60.9324C15.0382 61.1214 16.1539 61.0084 17.1785 60.6057C18.2031 60.2029 19.0972 59.5261 19.7628 58.6492C20.4285 57.7723 20.84 56.7291 20.9524 55.634C21.0648 54.5388 20.8737 53.4338 20.4 52.44L26.4 46.44C27.8984 46.847 29.4477 47.0356 31 47C32.5583 46.9986 34.108 46.7695 35.6 46.32L41.72 52.44C41.2463 53.4338 41.0552 54.5388 41.1676 55.634C41.28 56.7291 41.6916 57.7723 42.3572 58.6492C43.0228 59.5261 43.9169 60.2029 44.9415 60.6057C45.9661 61.0084 47.0818 61.1214 48.1664 60.9324C49.251 60.7434 50.2626 60.2596 51.0906 59.534C51.9186 58.8085 52.531 57.8691 52.8608 56.8187C53.1906 55.7683 53.225 54.6475 52.9603 53.5788C52.6956 52.5102 52.1419 51.535 51.36 50.76V50.76C50.482 49.8863 49.3551 49.3058 48.134 49.0981C46.9129 48.8905 45.6575 49.0658 44.54 49.6L39.48 44.54C41.4877 43.2828 43.1912 41.5954 44.4674 39.5997C45.7437 37.6041 46.5609 35.3499 46.86 33H49.36C49.7269 34.0378 50.3722 34.9546 51.2253 35.6502C52.0784 36.3457 53.1064 36.7932 54.1967 36.9437C55.2871 37.0941 56.3979 36.9417 57.4074 36.5032C58.417 36.0646 59.2865 35.3568 59.9207 34.4572C60.5549 33.5576 60.9295 32.5008 61.0033 31.4026C61.0772 30.3044 60.8475 29.207 60.3395 28.2306C59.8314 27.2541 59.0646 26.4362 58.1228 25.8665C57.1811 25.2967 56.1007 24.9969 55 25V25ZM16.42 56.42C16.2341 56.6075 16.0129 56.7563 15.7692 56.8578C15.5254 56.9593 15.264 57.0116 15 57.0116C14.736 57.0116 14.4746 56.9593 14.2309 56.8578C13.9871 56.7563 13.7659 56.6075 13.58 56.42C13.3926 56.2341 13.2438 56.0129 13.1422 55.7692C13.0407 55.5254 12.9884 55.264 12.9884 55C12.9884 54.736 13.0407 54.4746 13.1422 54.2309C13.2438 53.9871 13.3926 53.7659 13.58 53.58V53.58C13.7659 53.3926 13.9871 53.2438 14.2309 53.1422C14.4746 53.0407 14.736 52.9884 15 52.9884C15.264 52.9884 15.5254 53.0407 15.7692 53.1422C16.0129 53.2438 16.2341 53.3926 16.42 53.58C16.6075 53.7659 16.7563 53.9871 16.8578 54.2309C16.9593 54.4746 17.0116 54.736 17.0116 55C17.0116 55.264 16.9593 55.5254 16.8578 55.7692C16.7563 56.0129 16.6075 56.2341 16.42 56.42V56.42ZM47.12 53C47.5826 53.0027 48.0299 53.1656 48.3858 53.461C48.7417 53.7565 48.9843 54.1662 49.0721 54.6203C49.1599 55.0745 49.0876 55.545 48.8674 55.9518C48.6473 56.3586 48.2929 56.6766 47.8647 56.8515C47.4365 57.0264 46.9609 57.0475 46.5189 56.9111C46.0768 56.7747 45.6958 56.4894 45.4405 56.1036C45.1853 55.7179 45.0716 55.2555 45.1189 54.7954C45.1662 54.3353 45.3716 53.9058 45.7 53.58C45.8869 53.3946 46.1085 53.248 46.3522 53.1485C46.5959 53.0489 46.8568 52.9985 47.12 53ZM31 5.00001C31.3956 5.00001 31.7823 5.11731 32.1111 5.33707C32.44 5.55683 32.6964 5.86919 32.8478 6.23464C32.9991 6.60009 33.0387 7.00223 32.9616 7.39019C32.8844 7.77815 32.6939 8.13452 32.4142 8.41422C32.1345 8.69393 31.7782 8.88441 31.3902 8.96158C31.0022 9.03875 30.6001 8.99914 30.2346 8.84777C29.8692 8.69639 29.5568 8.44005 29.3371 8.11115C29.1173 7.78225 29 7.39557 29 7.00001C29 6.46958 29.2107 5.96087 29.5858 5.58579C29.9609 5.21072 30.4696 5.00001 31 5.00001V5.00001ZM31 19C34.1826 19 37.2349 20.2643 39.4853 22.5147C41.7357 24.7652 43 27.8174 43 31C43.0002 32.0199 42.8657 33.0353 42.6 34.02C41.1628 32.5083 39.4439 31.2921 37.54 30.44C37.9445 29.3801 38.0853 28.2377 37.9503 27.1113C37.8152 25.9849 37.4085 24.9081 36.765 23.9738C36.1215 23.0395 35.2605 22.2755 34.2563 21.7478C33.252 21.2201 32.1345 20.9443 31 20.9443C29.8655 20.9443 28.748 21.2201 27.7438 21.7478C26.7395 22.2755 25.8785 23.0395 25.235 23.9738C24.5915 24.9081 24.1848 25.9849 24.0498 27.1113C23.9147 28.2377 24.0555 29.3801 24.46 30.44C22.5561 31.2921 20.8372 32.5083 19.4 34.02C19.1343 33.0353 18.9998 32.0199 19 31C19 27.8174 20.2643 24.7652 22.5147 22.5147C24.7652 20.2643 27.8174 19 31 19V19ZM34 28C34 28.5934 33.8241 29.1734 33.4944 29.6667C33.1648 30.1601 32.6962 30.5446 32.1481 30.7716C31.5999 30.9987 30.9967 31.0581 30.4147 30.9424C29.8328 30.8266 29.2982 30.5409 28.8787 30.1213C28.4591 29.7018 28.1734 29.1672 28.0577 28.5853C27.9419 28.0033 28.0013 27.4001 28.2284 26.852C28.4554 26.3038 28.84 25.8352 29.3333 25.5056C29.8266 25.176 30.4067 25 31 25C31.7957 25 32.5587 25.3161 33.1213 25.8787C33.6839 26.4413 34 27.2044 34 28ZM7.00001 33C6.60445 33 6.21777 32.8827 5.88887 32.6629C5.55997 32.4432 5.30362 32.1308 5.15225 31.7654C5.00087 31.3999 4.96127 30.9978 5.03844 30.6098C5.11561 30.2219 5.30609 29.8655 5.58579 29.5858C5.8655 29.3061 6.22187 29.1156 6.60983 29.0384C6.99779 28.9613 7.39992 29.0009 7.76538 29.1522C8.13083 29.3036 8.44318 29.56 8.66295 29.8889C8.88271 30.2178 9.00001 30.6044 9.00001 31C9.00001 31.5304 8.78929 32.0391 8.41422 32.4142C8.03915 32.7893 7.53044 33 7.00001 33ZM27 42.32C26.7581 42.1635 26.4852 42.0612 26.2 42.02C24.1987 41.1694 22.4692 39.7858 21.2 38.02C22.6461 36.0253 24.6711 34.5239 27 33.72C28.1716 34.5428 29.5684 34.9843 31 34.9843C32.4316 34.9843 33.8284 34.5428 35 33.72C37.2897 34.5364 39.2774 36.0289 40.7 38C39.4045 39.773 37.6474 41.1566 35.62 42C35.4539 42.0422 35.2929 42.1026 35.14 42.18C33.8193 42.6958 32.4176 42.9734 31 43C29.6371 43.0097 28.2831 42.7795 27 42.32V42.32ZM55 33C54.6044 33 54.2178 32.8827 53.8889 32.6629C53.56 32.4432 53.3036 32.1308 53.1522 31.7654C53.0009 31.3999 52.9613 30.9978 53.0384 30.6098C53.1156 30.2219 53.3061 29.8655 53.5858 29.5858C53.8655 29.3061 54.2219 29.1156 54.6098 29.0384C54.9978 28.9613 55.3999 29.0009 55.7654 29.1522C56.1308 29.3036 56.4432 29.56 56.6629 29.8889C56.8827 30.2178 57 30.6044 57 31C57 31.5304 56.7893 32.0391 56.4142 32.4142C56.0391 32.7893 55.5304 33 55 33Z" fill="#1BCFF6"/>
</svg>
