<svg width="56" height="56" viewBox="0 0 56 56" fill="none" xmlns="http://www.w3.org/2000/svg">
<path d="M50 8.00003H46C45.4696 8.00003 44.9609 8.21074 44.5858 8.58582C44.2107 8.96089 44 9.4696 44 10V12H24.7568L22.3184 4.33203C21.7954 2.76642 20.6828 1.46627 19.2169 0.707595C17.7509 -0.0510807 16.047 -0.208545 14.4668 0.26863C13.6666 0.501394 12.9213 0.892486 12.2751 1.41871C11.6289 1.94493 11.095 2.59557 10.705 3.33203C10.3264 4.04105 10.0942 4.8189 10.022 5.6194C9.94989 6.41991 10.0393 7.22675 10.285 7.99203L11.56 12H2C1.46957 12 0.960859 12.2107 0.585786 12.5858C0.210714 12.9609 0 13.4696 0 14V54C0 54.5305 0.210714 55.0392 0.585786 55.4142C0.960859 55.7893 1.46957 56 2 56H50C51.5908 55.9983 53.1159 55.3656 54.2407 54.2407C55.3656 53.1159 55.9983 51.5908 56 50V14C55.9983 12.4093 55.3656 10.8842 54.2407 9.75932C53.1159 8.63448 51.5908 8.00178 50 8.00003ZM25.834 28.5908L24.334 31.333L21.434 29.8466L15.98 12.6976L20.3654 11.392L25.834 28.5908ZM14.24 5.20323C14.3828 4.93777 14.5773 4.70365 14.8121 4.51471C15.047 4.32576 15.3173 4.18585 15.6072 4.10323C16.183 3.91902 16.808 3.96666 17.3492 4.23601C17.8905 4.50537 18.3053 4.9752 18.5056 5.54563L19.1528 7.58003L14.7674 8.88563L14.0976 6.78003C14.0143 6.5211 13.984 6.24805 14.0084 5.97715C14.0329 5.70624 14.1116 5.44304 14.24 5.20323V5.20323ZM50 52H4V16H12.8316L17.873 31.8536C17.9532 32.1052 18.0823 32.3383 18.2529 32.5398C18.4235 32.7412 18.6323 32.907 18.8672 33.0274L24.2422 35.78C24.5238 35.9247 24.8358 36.0001 25.1524 36H31C31.7956 36 32.5587 36.3161 33.1213 36.8787C33.6839 37.4413 34 38.2044 34 39C34 39.7957 33.6839 40.5587 33.1213 41.1213C32.5587 41.684 31.7956 42 31 42H10V46H31C32.8565 46 34.637 45.2625 35.9497 43.9498C37.2625 42.637 38 40.8565 38 39C38 37.1435 37.2625 35.363 35.9497 34.0503C34.637 32.7375 32.8565 32 31 32H28.528L29.754 29.76C29.8844 29.5229 29.9651 29.2618 29.9913 28.9925C30.0175 28.7232 29.9886 28.4514 29.9064 28.1936L26.0288 16H44V46C44 46.5305 44.2107 47.0392 44.5858 47.4142C44.9609 47.7893 45.4696 48 46 48H50C50.5304 48 51.0391 48.2107 51.4142 48.5858C51.7893 48.9609 52 49.4696 52 50C52 50.5305 51.7893 51.0392 51.4142 51.4142C51.0391 51.7893 50.5304 52 50 52ZM52 44.3428C51.3578 44.1154 50.6813 43.9994 50 44H48V12H50C50.5303 12.0006 51.0387 12.2114 51.4136 12.5864C51.7886 12.9614 51.9995 13.4698 52 14V44.3428Z" fill="#FF872E"/>
</svg>
