<svg width="57" height="56" viewBox="0 0 57 56" fill="none" xmlns="http://www.w3.org/2000/svg">
<path d="M16.4714 45.4055L17.2037 46.5771C18.3271 48.3626 19.8677 49.8481 21.6927 50.9059C23.5178 51.9636 25.5727 52.5617 27.6804 52.6488C29.788 52.7358 31.8852 52.3092 33.7913 51.4056C35.6974 50.5019 37.3552 49.1485 38.622 47.4617L39.9056 45.7502C41.5708 43.5216 42.4798 40.819 42.5 38.0371L45.5625 35.4839C46.0114 35.1123 46.3784 34.6517 46.6401 34.1311C46.9019 33.6105 47.0528 33.0413 47.0833 32.4593C47.1138 31.8774 47.0233 31.2955 46.8174 30.7504C46.6115 30.2053 46.2947 29.7088 45.8871 29.2924C45.9595 29.1651 45.9983 29.0214 46 28.875V23.625C45.9969 20.6756 45.2478 17.7749 43.8224 15.1928C42.3971 12.6107 40.3417 10.4311 37.8476 8.85674L36.879 6.93174C36.1022 5.37445 34.9068 4.06446 33.4269 3.14883C31.947 2.23321 30.2411 1.74817 28.5009 1.74817C26.7606 1.74817 25.0548 2.23321 23.5749 3.14883C22.0949 4.06446 20.8995 5.37445 20.1227 6.93174L19.4052 8.35799C19.3448 8.48215 19.3148 8.61893 19.3177 8.75699C16.7669 10.3076 14.6604 12.4916 13.2029 15.0968C11.7455 17.702 10.9866 20.6398 11 23.625V28.875C11.0031 29.0205 11.0438 29.1628 11.1181 29.288C10.7093 29.7041 10.3914 30.2005 10.1845 30.7459C9.97771 31.2913 9.88645 31.8738 9.91656 32.4563C9.94667 33.0388 10.0975 33.6088 10.3595 34.1299C10.6214 34.6511 10.9888 35.1122 11.4384 35.4839L14.5 38.0345V38.5315C14.4992 40.9624 15.1823 43.3445 16.4714 45.4055V45.4055ZM40.75 28.875V37.9689C40.7449 40.3956 39.9579 42.756 38.5056 44.7002L37.2229 46.4117C36.13 47.8761 34.6966 49.0519 33.0468 49.8372C31.397 50.6226 29.5806 50.9939 27.755 50.9189C25.9293 50.8439 24.1495 50.3249 22.5697 49.4069C20.9899 48.4889 19.6577 47.1995 18.6886 45.6505L17.9554 44.478C16.8403 42.6951 16.2493 40.6344 16.25 38.5315V28.875C16.2449 28.8381 16.2376 28.8016 16.2281 28.7656C17.4969 27.9834 18.7297 27.1486 19.9154 26.25H33.099L40.75 28.5005V28.875ZM22.0854 24.5C22.6165 24.0441 23.1406 23.5786 23.6507 23.1C24.6799 23.6485 25.762 24.0914 26.8804 24.4221L27.149 24.5009L22.0854 24.5ZM45.1565 31.311C45.3522 31.7975 45.3884 32.3337 45.2598 32.8421C45.1311 33.3505 44.8443 33.805 44.4407 34.1399L42.5 35.7569V29.75H42.85C43.3469 29.7479 43.8328 29.8958 44.2443 30.1743C44.6558 30.4528 44.9737 30.8489 45.1565 31.311ZM28.5 3.49999C29.8619 3.49787 31.1991 3.86346 32.3705 4.55819C33.5419 5.25292 34.504 6.25102 35.1552 7.44712C34.94 7.35962 34.7177 7.28699 34.4981 7.20649C34.4911 7.20649 34.4859 7.19687 34.4789 7.19424C34.4465 7.18287 34.4132 7.17499 34.3809 7.16362C33.9679 7.01487 33.5482 6.88187 33.1217 6.76462C33.015 6.73487 32.9091 6.70949 32.8024 6.68237C32.4235 6.58612 32.0437 6.49599 31.6552 6.42512C31.4356 6.38399 31.2177 6.35687 30.9946 6.32362C30.705 6.28249 30.418 6.23612 30.1196 6.20724C29.5832 6.15562 29.0425 6.12499 28.5 6.12499C26.2122 6.1313 23.9479 6.58613 21.8351 7.46374C22.4843 6.26254 23.4468 5.25968 24.6203 4.56175C25.7939 3.86382 27.1346 3.4969 28.5 3.49999ZM28.5 7.87499C28.9917 7.87499 29.4756 7.90474 29.956 7.94849C30.2299 7.97474 30.5029 8.01762 30.7759 8.05874C30.9605 8.08587 31.1451 8.10949 31.3271 8.14624C31.6885 8.21362 32.0481 8.29587 32.4069 8.38862C32.483 8.40874 32.56 8.42712 32.6352 8.44812C33.0331 8.55778 33.4283 8.68291 33.8209 8.82349C36.8697 9.91971 39.5067 11.9288 41.3728 14.5773C43.2389 17.2258 44.2436 20.3851 44.25 23.625V27.706L27.3739 22.7421C24.9805 22.0397 22.7929 20.7677 20.9986 19.0351C19.2042 17.3024 17.8565 15.1607 17.0707 12.7934C18.5364 11.2333 20.3075 9.99154 22.2738 9.1454C24.2401 8.29925 26.3594 7.86681 28.5 7.87499V7.87499ZM12.75 23.625C12.7495 20.2908 13.8122 17.0433 15.7836 14.3544C17.0587 17.5241 19.2504 20.2413 22.0784 22.1585C21.0931 23.0638 20.0685 23.9242 19.0045 24.7397C18.9957 24.7485 18.9852 24.7537 18.9765 24.7625C17.4292 25.9465 15.8061 27.028 14.1176 28C13.6514 28.005 13.1893 28.0872 12.75 28.2432V23.625ZM12.5592 34.1399C12.167 33.8132 11.8851 33.3737 11.7517 32.881C11.6183 32.3883 11.6401 31.8665 11.814 31.3866C11.9878 30.9068 12.3054 30.4922 12.7234 30.1993C13.1415 29.9064 13.6396 29.7495 14.15 29.75H14.5V35.7569L12.5592 34.1399Z" fill="#264065"/>
<path d="M27.625 33.25C27.625 32.2117 27.3171 31.1966 26.7402 30.3333C26.1633 29.4699 25.3434 28.797 24.3841 28.3996C23.4248 28.0023 22.3692 27.8983 21.3508 28.1009C20.3324 28.3035 19.3969 28.8035 18.6627 29.5377C17.9285 30.2719 17.4285 31.2074 17.2259 32.2258C17.0233 33.2442 17.1273 34.2998 17.5246 35.2591C17.922 36.2184 18.5949 37.0383 19.4583 37.6152C20.3216 38.1921 21.3367 38.5 22.375 38.5C23.767 38.4986 25.1015 37.945 26.0858 36.9608C27.07 35.9765 27.6236 34.642 27.625 33.25V33.25ZM22.375 36.75C21.6828 36.75 21.0061 36.5447 20.4305 36.1601C19.8549 35.7756 19.4063 35.2289 19.1414 34.5894C18.8765 33.9499 18.8072 33.2461 18.9423 32.5672C19.0773 31.8883 19.4106 31.2646 19.9001 30.7751C20.3896 30.2856 21.0133 29.9523 21.6922 29.8173C22.3711 29.6822 23.0749 29.7515 23.7144 30.0164C24.3539 30.2813 24.9006 30.7299 25.2851 31.3055C25.6697 31.8811 25.875 32.5578 25.875 33.25C25.875 34.1783 25.5063 35.0685 24.8499 35.7249C24.1935 36.3813 23.3033 36.75 22.375 36.75Z" fill="#264065"/>
<path d="M23.25 30.625H21.5V32.375H23.25V30.625Z" fill="#264065"/>
<path d="M23.25 34.125H21.5V35.875H23.25V34.125Z" fill="#264065"/>
<path d="M25 32.375H23.25V34.125H25V32.375Z" fill="#264065"/>
<path d="M21.5 32.375H19.75V34.125H21.5V32.375Z" fill="#264065"/>
<path d="M29.375 33.25C29.375 34.2884 29.6829 35.3034 30.2598 36.1667C30.8367 37.0301 31.6566 37.703 32.6159 38.1004C33.5752 38.4977 34.6308 38.6017 35.6492 38.3991C36.6676 38.1966 37.6031 37.6965 38.3373 36.9623C39.0715 36.2281 39.5716 35.2926 39.7741 34.2742C39.9767 33.2558 39.8727 32.2002 39.4754 31.2409C39.078 30.2816 38.4051 29.4617 37.5417 28.8848C36.6784 28.3079 35.6634 28 34.625 28C33.233 28.0014 31.8985 28.555 30.9142 29.5392C29.93 30.5235 29.3764 31.858 29.375 33.25ZM34.625 29.75C35.3172 29.75 35.9939 29.9553 36.5695 30.3399C37.1451 30.7244 37.5937 31.2711 37.8586 31.9106C38.1235 32.5501 38.1928 33.2539 38.0577 33.9328C37.9227 34.6118 37.5894 35.2354 37.0999 35.7249C36.6104 36.2144 35.9868 36.5477 35.3078 36.6827C34.6289 36.8178 33.9251 36.7485 33.2856 36.4836C32.6461 36.2187 32.0994 35.7701 31.7149 35.1945C31.3303 34.6189 31.125 33.9422 31.125 33.25C31.125 32.3217 31.4938 31.4315 32.1501 30.7751C32.8065 30.1188 33.6967 29.75 34.625 29.75Z" fill="#264065"/>
<path d="M35.5 30.625H33.75V32.375H35.5V30.625Z" fill="#264065"/>
<path d="M35.5 34.125H33.75V35.875H35.5V34.125Z" fill="#264065"/>
<path d="M37.25 32.375H35.5V34.125H37.25V32.375Z" fill="#264065"/>
<path d="M33.75 32.375H32V34.125H33.75V32.375Z" fill="#264065"/>
<path d="M32.2564 43.1314C31.2593 44.1262 29.9084 44.6849 28.5 44.6849C27.0916 44.6849 25.7406 44.1262 24.7436 43.1314C24.5786 42.972 24.3576 42.8838 24.1281 42.8858C23.8987 42.8878 23.6793 42.9798 23.517 43.142C23.3548 43.3043 23.2628 43.5237 23.2608 43.7531C23.2588 43.9826 23.347 44.2036 23.5064 44.3686C24.8318 45.6911 26.6277 46.4338 28.5 46.4338C30.3723 46.4338 32.1682 45.6911 33.4936 44.3686C33.653 44.2036 33.7412 43.9826 33.7392 43.7531C33.7372 43.5237 33.6452 43.3043 33.483 43.142C33.3207 42.9798 33.1013 42.8878 32.8718 42.8858C32.6424 42.8838 32.4214 42.972 32.2564 43.1314Z" fill="#264065"/>
<path d="M26.3589 41.9125L28.1089 42.7875C28.2117 42.8389 28.3237 42.8695 28.4383 42.8776C28.553 42.8857 28.6681 42.8711 28.7772 42.8347C28.8862 42.7983 28.987 42.7408 29.0738 42.6654C29.1606 42.5901 29.2317 42.4983 29.2831 42.3955C29.3345 42.2927 29.3651 42.1807 29.3732 42.066C29.3813 41.9514 29.3667 41.8362 29.3303 41.7272C29.2939 41.6181 29.2364 41.5173 29.161 41.4305C29.0857 41.3437 28.9939 41.2726 28.8911 41.2212L27.849 40.7006L29.3181 36.8349C29.3589 36.7274 29.3781 36.613 29.3747 36.4981C29.3713 36.3833 29.3453 36.2702 29.2981 36.1654C29.251 36.0606 29.1837 35.9661 29.1 35.8873C29.0164 35.8085 28.918 35.7469 28.8106 35.7061C28.7032 35.6653 28.5888 35.6461 28.4739 35.6495C28.359 35.653 28.2459 35.679 28.1411 35.7261C28.0363 35.7732 27.9418 35.8405 27.863 35.9242C27.7842 36.0078 27.7227 36.1062 27.6819 36.2136L25.9319 40.8187C25.8548 41.0216 25.8558 41.2458 25.9347 41.4479C26.0136 41.65 26.1647 41.8156 26.3589 41.9125V41.9125Z" fill="#264065"/>
</svg>
