<svg width="10" height="6" viewBox="0 0 10 6" fill="none" xmlns="http://www.w3.org/2000/svg">
<path d="M4.99997 6C4.86836 6.00076 4.7379 5.97554 4.61607 5.92577C4.49423 5.87601 4.38341 5.80268 4.28997 5.71L0.289972 1.71C0.101668 1.5217 -0.00411987 1.2663 -0.00411987 1C-0.00411987 0.7337 0.101668 0.478306 0.289972 0.290002C0.478275 0.101698 0.73367 -0.00408936 0.999972 -0.00408936C1.26627 -0.00408936 1.52167 0.101698 1.70997 0.290002L4.99997 3.59L8.28997 0.300002C8.48127 0.136176 8.72735 0.0505692 8.97902 0.0602903C9.2307 0.0700115 9.46944 0.174344 9.64753 0.352439C9.82563 0.530533 9.92996 0.769272 9.93968 1.02095C9.9494 1.27262 9.8638 1.5187 9.69997 1.71L5.69997 5.71C5.51371 5.89475 5.26231 5.9989 4.99997 6Z" fill="#264065"/>
</svg>
