<svg width="57" height="56" viewBox="0 0 57 56" fill="none" xmlns="http://www.w3.org/2000/svg">
<path d="M13.0703 43.0185C12.7246 42.7913 12.3937 42.5423 12.0798 42.273L10.986 41.335C10.8096 41.1842 10.5806 41.1096 10.3492 41.1276C10.1178 41.1457 9.90309 41.2549 9.75225 41.4312C9.60141 41.6076 9.52681 41.8367 9.54486 42.0681C9.56291 42.2994 9.67213 42.5142 9.8485 42.665L10.9423 43.6013C11.3128 43.9196 11.7036 44.2136 12.1121 44.4815C12.3061 44.6091 12.5429 44.6545 12.7703 44.6075C12.9978 44.5606 13.1972 44.4253 13.3249 44.2312C13.4525 44.0372 13.4979 43.8005 13.4509 43.573C13.404 43.3456 13.2686 43.1461 13.0746 43.0185H13.0703ZM20.4789 44.4867C19.9377 44.5785 19.3898 44.6248 18.8409 44.625H18.4375C17.4855 44.6252 16.5386 44.4858 15.627 44.2111C15.4047 44.1443 15.1649 44.1685 14.9605 44.2785C14.756 44.3884 14.6036 44.5751 14.5368 44.7974C14.4699 45.0197 14.4941 45.2595 14.6041 45.4639C14.714 45.6684 14.9007 45.8208 15.123 45.8876C16.1982 46.2107 17.3148 46.3749 18.4375 46.375H18.8409C19.4877 46.3749 20.1334 46.3205 20.7711 46.2122C20.8844 46.1931 20.9928 46.1517 21.0902 46.0907C21.1875 46.0296 21.2718 45.9499 21.3384 45.8562C21.4049 45.7625 21.4524 45.6567 21.478 45.5447C21.5036 45.4326 21.5069 45.3167 21.4878 45.2034C21.4686 45.0901 21.4272 44.9817 21.3662 44.8843C21.3051 44.787 21.2254 44.7027 21.1317 44.6361C21.038 44.5696 20.9322 44.5221 20.8202 44.4965C20.7081 44.4709 20.5922 44.4676 20.4789 44.4867ZM46.014 41.335L44.9203 42.273C44.6063 42.5423 44.2754 42.7913 43.9298 43.0185C43.7357 43.1461 43.6004 43.3456 43.5535 43.573C43.5065 43.8005 43.5519 44.0372 43.6795 44.2312C43.8071 44.4253 44.0066 44.5606 44.234 44.6075C44.4615 44.6545 44.6982 44.6091 44.8923 44.4815C45.3005 44.2151 45.6912 43.9228 46.0621 43.6065L47.1559 42.6694C47.2432 42.5947 47.315 42.5035 47.3671 42.4011C47.4192 42.2987 47.4506 42.187 47.4595 42.0724C47.4685 41.9579 47.4547 41.8427 47.4192 41.7334C47.3836 41.6241 47.3268 41.523 47.2521 41.4356C47.1774 41.3483 47.0863 41.2765 46.9839 41.2244C46.8814 41.1723 46.7698 41.1409 46.6552 41.132C46.5406 41.123 46.4254 41.1368 46.3162 41.1723C46.2069 41.2079 46.1057 41.2647 46.0184 41.3394L46.014 41.335ZM41.373 44.2111C40.4614 44.4858 39.5145 44.6252 38.5625 44.625H38.1591C37.6102 44.6248 37.0623 44.5785 36.5211 44.4867C36.4078 44.4676 36.2919 44.4709 36.1798 44.4965C36.0678 44.5221 35.962 44.5696 35.8683 44.6361C35.7746 44.7027 35.6949 44.787 35.6338 44.8843C35.5728 44.9817 35.5314 45.0901 35.5123 45.2034C35.4931 45.3167 35.4964 45.4326 35.522 45.5447C35.5476 45.6567 35.5951 45.7625 35.6616 45.8562C35.796 46.0454 36.0001 46.1735 36.2289 46.2122C36.8666 46.3205 37.5123 46.3749 38.1591 46.375H38.5625C39.6852 46.3749 40.8018 46.2107 41.877 45.8876C42.0993 45.8208 42.286 45.6684 42.3959 45.4639C42.5059 45.2595 42.5301 45.0197 42.4633 44.7974C42.3964 44.5751 42.244 44.3884 42.0395 44.2785C41.8351 44.1685 41.5953 44.1443 41.373 44.2111V44.2111Z" fill="#264065"/>
<path d="M46.0621 33.3996C45.0945 32.5754 43.9978 31.9161 42.8159 31.4484C43.7003 29.9864 44.2945 28.3675 44.5659 26.6805L45.9939 17.6365C46.0153 17.5002 46.0043 17.3607 45.9615 17.2294C45.9188 17.0982 45.8456 16.9789 45.748 16.8814C45.651 16.7829 45.5318 16.7093 45.4004 16.6667C45.2689 16.624 45.1292 16.6136 44.9929 16.6364L38.2624 17.6986L36.2341 12.7908C36.1814 12.6634 36.0993 12.5502 35.9946 12.4606C35.8898 12.371 35.7654 12.3074 35.6314 12.2749C35.4974 12.2425 35.3576 12.2422 35.2235 12.2741C35.0893 12.3059 34.9646 12.3691 34.8595 12.4583L32.6877 14.3036L29.2595 8.3125C29.1766 8.18687 29.0638 8.08377 28.9312 8.01244C28.7987 7.9411 28.6505 7.90376 28.5 7.90376C28.3495 7.90376 28.2013 7.9411 28.0687 8.01244C27.9362 8.08377 27.8234 8.18687 27.7405 8.3125L24.3166 14.3001L22.1449 12.4548C22.0402 12.3648 21.9155 12.3012 21.7813 12.2692C21.647 12.2373 21.5071 12.2379 21.3731 12.271C21.2391 12.3034 21.1147 12.3669 21.0099 12.4565C20.9052 12.546 20.823 12.6591 20.7702 12.7864L18.7674 17.6208L12.5006 16.632C12.3644 16.6106 12.2251 16.6217 12.094 16.6644C11.9628 16.7071 11.8437 16.7802 11.7462 16.8777C11.6487 16.9752 11.5756 17.0944 11.5329 17.2255C11.4902 17.3566 11.4791 17.4959 11.5005 17.6321L12.925 26.6875C13.1913 28.3142 13.7549 29.8779 14.5875 31.3005C13.2531 31.7699 12.017 32.4818 10.9414 33.4005L7.80887 36.0868C7.71311 36.1689 7.63625 36.2708 7.58355 36.3854C7.53085 36.5 7.50357 36.6247 7.50357 36.7509C7.50357 36.877 7.53085 37.0017 7.58355 37.1163C7.63625 37.231 7.71311 37.3329 7.80887 37.415L10.9387 40.1013C13.0284 41.8891 15.6874 42.8726 18.4375 42.875H18.84C20.0279 42.8759 21.2086 42.692 22.34 42.3299C23.0114 45.9677 25.022 49.2218 27.975 51.45C28.1264 51.5636 28.3107 51.625 28.5 51.625C28.6893 51.625 28.8735 51.5636 29.025 51.45C31.9791 49.2226 33.991 45.9688 34.6635 42.3308C35.795 42.6921 36.9757 42.8757 38.1635 42.875H38.566C41.3165 42.8726 43.9759 41.8887 46.0656 40.1004L49.1981 37.4141C49.2939 37.332 49.3707 37.2301 49.4234 37.1155C49.4761 37.0008 49.5034 36.8762 49.5034 36.75C49.5034 36.6238 49.4761 36.4992 49.4234 36.3845C49.3707 36.2699 49.2939 36.168 49.1981 36.0859L46.0621 33.3996ZM44.075 18.55L42.8325 26.4075C42.5726 28.0701 41.9533 29.6559 41.0177 31.0546C40.0218 32.5384 38.7 33.7748 37.1532 34.6696C35.6063 35.5643 33.8754 36.0936 32.0927 36.2171L31.5957 36.2504C30.7318 36.312 29.8672 36.1403 29.0924 35.7534C29.081 35.7481 29.0714 35.7429 29.0591 35.7385C28.5938 35.5024 28.1689 35.194 27.8 34.825V34.825C27.3052 34.3301 26.9219 33.7352 26.6758 33.0801C26.4296 32.425 26.3264 31.7249 26.3729 31.0266L26.4052 30.5296C26.5809 27.8924 27.6477 25.3932 29.4306 23.442C31.2136 21.4909 33.6067 20.2037 36.2175 19.7916L44.075 18.55ZM35.0721 14.5696L36.4809 17.9821L35.9445 18.0696C35.5945 18.1248 35.2445 18.2096 34.8945 18.2945C34.6521 17.7984 34.4027 17.3136 34.1437 16.8604L33.5689 15.8541L35.0721 14.5696ZM24.377 17.7249L28.5 10.5131L32.623 17.7249C32.8234 18.0749 33.0141 18.4354 33.2005 18.8064C32.2873 19.1583 31.4153 19.6089 30.6 20.1504C29.9366 20.6016 29.3157 21.1124 28.745 21.6764C27.3717 20.3138 25.7079 19.2797 23.8782 18.6515C24.0436 18.3304 24.2125 18.025 24.377 17.7249ZM21.927 14.5688L23.4329 15.8489L22.8554 16.8604C22.6209 17.2769 22.3916 17.7161 22.1624 18.1729C21.9471 18.1283 21.7424 18.0924 21.5411 18.0635L20.5454 17.906L21.927 14.5688ZM13.4167 18.55L21.2769 19.7908C21.6598 19.849 22.0395 19.9269 22.4144 20.0244C24.3668 20.5283 26.1491 21.5448 27.5769 22.9688C25.8762 25.098 24.862 27.6933 24.6684 30.4115L24.636 30.9085C24.5722 31.8556 24.7119 32.8055 25.0458 33.6941C25.3796 34.5828 25.8998 35.3897 26.5715 36.0605C26.6284 36.1183 26.6914 36.1681 26.7509 36.2233C26.4687 36.2564 26.1842 36.2663 25.9004 36.253L25.3937 36.2171C24.7411 36.1745 24.0937 36.0735 23.4591 35.9153C22.364 35.6562 21.3122 35.24 20.3362 34.6798C18.8758 33.8367 17.6178 32.6838 16.6507 31.3023L16.4757 31.0564C15.5432 29.6569 14.9244 28.0722 14.6619 26.411L13.4167 18.55ZM18.84 41.125H18.4375C16.105 41.1229 13.8498 40.2889 12.0771 38.773L9.71899 36.75L12.0815 34.727C13.1111 33.8507 14.3121 33.1987 15.6077 32.8125C17.4553 35.2269 20.0844 36.9244 23.0452 37.6145C23.7762 37.7975 24.522 37.9146 25.2739 37.9645L25.7787 38.0004C25.8557 38.0048 25.9327 38.0056 26.0089 38.0074L25.7464 38.2699C24.8687 39.1514 23.8288 39.8547 22.6839 40.341C21.469 40.8602 20.1612 41.1269 18.84 41.125ZM28.5 49.6344C26.0806 47.6066 24.4796 44.7694 23.9946 41.65C25.1003 41.1021 26.1098 40.3784 26.9836 39.5071L28.5 37.9873L30.0164 39.5036C30.8904 40.3749 31.8998 41.0989 33.0054 41.6474C32.521 44.7677 30.92 47.6059 28.5 49.6344V49.6344ZM44.9237 38.7721C43.151 40.2886 40.8954 41.1229 38.5625 41.125H38.16C36.8365 41.1263 35.5267 40.8583 34.31 40.3375C33.1671 39.8503 32.129 39.1471 31.2527 38.2664L30.9841 37.9978C31.0795 37.9978 31.1749 38.0118 31.2702 38.0118C31.4181 38.0118 31.5669 38.0074 31.7147 37.9978L32.2117 37.9645C34.0675 37.8325 35.8759 37.3178 37.5231 36.453C39.1704 35.5882 40.6209 34.3919 41.7834 32.9394C42.9307 33.3369 43.9948 33.9429 44.922 34.727L47.281 36.75L44.9237 38.7721Z" fill="#264065"/>
<path d="M5.75 35.875H4V37.625H5.75V35.875Z" fill="#264065"/>
<path d="M11 14H9.25V15.75H11V14Z" fill="#264065"/>
<path d="M29.375 4.375H27.625V6.125H29.375V4.375Z" fill="#264065"/>
<path d="M47.75 14H46V15.75H47.75V14Z" fill="#264065"/>
<path d="M53 35.875H51.25V37.625H53V35.875Z" fill="#264065"/>
</svg>
