<svg width="24" height="24" viewBox="0 0 24 24" fill="none" xmlns="http://www.w3.org/2000/svg">
<path d="M4.57971 20.3297V3.67031C4.57971 2.95078 5.37424 2.51719 5.97893 2.9039L19.0008 11.2336C19.561 11.5922 19.561 12.4078 19.0008 12.7664L5.97893 21.0961C5.37424 21.4828 4.57971 21.0492 4.57971 20.3297Z" fill="#264065"/>
<path d="M4.93124 20.3297C4.93124 20.0016 4.93124 19.6711 4.93124 19.343C4.93124 18.5062 4.93124 17.6695 4.93124 16.8328C4.93124 15.6961 4.93124 14.5594 4.93124 13.425C4.93124 12.2062 4.93124 10.9875 4.93124 9.7664C4.93124 8.6789 4.93124 7.5914 4.93124 6.50155C4.93124 5.75858 4.93124 5.01796 4.93124 4.27499C4.93124 4.10155 4.93124 3.92577 4.93124 3.75233C4.93124 3.72655 4.93124 3.69843 4.93124 3.67265C4.93124 3.66093 4.93124 3.65624 4.93124 3.63983C4.93124 3.61874 4.93358 3.59999 4.93593 3.5789C4.93124 3.6539 4.93358 3.59061 4.93827 3.56952C4.94999 3.52733 4.96171 3.48515 4.97343 3.4453C4.94999 3.51561 4.96639 3.45702 4.97811 3.43827C4.99452 3.41015 5.00858 3.38202 5.02733 3.3539C5.03671 3.33749 5.04843 3.32343 5.0578 3.30936C5.01561 3.36796 5.04374 3.32811 5.05546 3.3164C5.08827 3.28358 5.11874 3.25311 5.15389 3.22265C5.09764 3.27186 5.13983 3.23202 5.15858 3.2203C5.17733 3.20858 5.19608 3.19686 5.21718 3.18515C5.23358 3.17577 5.24999 3.16874 5.26639 3.15936C5.33436 3.12186 5.21483 3.17343 5.2828 3.15233C5.32733 3.14061 5.36952 3.12655 5.41405 3.11718C5.49374 3.09608 5.36718 3.11015 5.41639 3.11718C5.43749 3.11952 5.46327 3.11483 5.48436 3.11483C5.50311 3.11483 5.52186 3.11483 5.54061 3.11718C5.5453 3.11718 5.63202 3.13358 5.57811 3.11952C5.52186 3.10546 5.61327 3.1289 5.61561 3.1289C5.64374 3.13593 5.67186 3.1453 5.69764 3.15468C5.75858 3.17343 5.70936 3.15936 5.6953 3.15233C5.72343 3.1664 5.74921 3.18046 5.77499 3.19452C5.78436 3.19921 5.79374 3.20624 5.80077 3.21093C5.80311 3.21327 5.80546 3.21327 5.8078 3.21561C5.84061 3.23671 5.87577 3.2578 5.90858 3.2789C6.08436 3.3914 6.2578 3.50155 6.43358 3.61405C7.11561 4.04999 7.79999 4.48827 8.48202 4.92421C9.44296 5.54061 10.4062 6.15468 11.3672 6.77108C12.3867 7.42265 13.4062 8.07655 14.4281 8.72812C15.307 9.29062 16.1836 9.85077 17.0625 10.4133C17.5851 10.7484 18.1078 11.0836 18.6328 11.4164C18.6844 11.4492 18.7336 11.482 18.7851 11.5125C18.7969 11.5195 18.8086 11.5266 18.8203 11.5336C18.8226 11.5336 18.825 11.5359 18.825 11.5359C18.8414 11.5476 18.8601 11.5594 18.8766 11.5711C18.8226 11.5289 18.8742 11.5711 18.8859 11.5828C18.9094 11.6086 18.9328 11.632 18.9562 11.6555C18.9703 11.6695 18.9844 11.707 18.9539 11.6531C18.9633 11.6695 18.975 11.6836 18.9844 11.7C18.9984 11.7234 19.0101 11.7492 19.0242 11.775C19.0336 11.7937 19.0406 11.8336 19.0219 11.768C19.0359 11.8125 19.05 11.8547 19.0617 11.9016C19.0664 11.9203 19.0687 11.9367 19.0711 11.9555C19.057 11.8664 19.0687 11.9508 19.0687 11.9719C19.0687 11.9976 19.057 12.1359 19.0711 12.0422C19.0641 12.0867 19.0547 12.1336 19.0406 12.1758C19.0359 12.1945 19.0289 12.2109 19.0219 12.2273C19.0453 12.1547 19.0289 12.2133 19.0172 12.232C19.0055 12.2531 18.9961 12.2742 18.982 12.293C18.975 12.3023 18.9211 12.3773 18.9703 12.3141C18.9398 12.3516 18.9047 12.3844 18.8695 12.4195C18.8601 12.4289 18.818 12.4617 18.8695 12.4219C18.8508 12.4359 18.8391 12.443 18.818 12.457C18.8156 12.457 18.8156 12.4594 18.8133 12.4594C18.8039 12.4664 18.7922 12.4734 18.7828 12.4781C18.3844 12.7336 17.9859 12.9867 17.5875 13.2422C16.7836 13.7555 15.9797 14.2711 15.1758 14.7844C14.1656 15.4289 13.1578 16.0758 12.1476 16.7203C11.1562 17.3555 10.1625 17.9906 9.17108 18.6258C8.3953 19.1226 7.61952 19.6195 6.84374 20.1141C6.49686 20.3367 6.15233 20.5617 5.80311 20.7797C5.76561 20.8031 5.72811 20.8242 5.68827 20.8453C5.74686 20.8148 5.70468 20.8383 5.69061 20.843C5.66718 20.85 5.64374 20.857 5.6203 20.8641C5.59686 20.8711 5.57343 20.8734 5.54999 20.8805C5.61327 20.8617 5.58514 20.8781 5.55936 20.8781C5.51249 20.8805 5.46796 20.8805 5.42108 20.8781C5.35546 20.8758 5.41874 20.8781 5.4328 20.8805C5.40702 20.8758 5.37889 20.8711 5.35311 20.8641C5.32968 20.8594 5.22889 20.8219 5.26639 20.8383C5.30389 20.8547 5.20546 20.8055 5.18671 20.7937C5.16796 20.782 5.14921 20.7656 5.13046 20.7562C5.08593 20.7351 5.18436 20.8101 5.12577 20.7516C5.09296 20.7187 5.06014 20.6883 5.02968 20.6531C5.07889 20.707 5.0203 20.6367 5.00389 20.6133C4.98983 20.5898 4.97811 20.5641 4.96405 20.5406C4.95468 20.5219 4.94999 20.4844 4.96639 20.5476C4.95468 20.5008 4.93827 20.4562 4.92655 20.4094C4.92186 20.3906 4.92421 20.3461 4.92655 20.4141C4.93358 20.3906 4.93124 20.3601 4.93124 20.3297C4.92889 20.1469 4.77186 19.9687 4.57968 19.9781C4.39218 19.9875 4.22577 20.1328 4.22811 20.3297C4.23514 20.7937 4.48827 21.2414 4.91249 21.45C5.31327 21.6469 5.77733 21.6351 6.15936 21.3984C6.24608 21.3445 6.3328 21.2883 6.41717 21.232C6.98671 20.8687 7.55624 20.5031 8.12577 20.1398C9.04218 19.5539 9.95858 18.968 10.875 18.382C11.9133 17.7164 12.9539 17.0531 13.9922 16.3875C14.9391 15.7828 15.8859 15.1758 16.8328 14.5711C17.4703 14.1633 18.1101 13.7555 18.7476 13.3453C18.8812 13.2609 19.0148 13.1742 19.1484 13.0898C19.275 13.0078 19.3945 12.9141 19.4883 12.7945C19.7953 12.4078 19.8515 11.8945 19.643 11.4469C19.5141 11.1726 19.2844 10.9992 19.0406 10.8422C18.8531 10.7226 18.6633 10.6008 18.4758 10.4812C17.7609 10.0242 17.0461 9.56718 16.3336 9.11015C15.3492 8.47968 14.3625 7.84921 13.3781 7.21874C12.3422 6.5578 11.3086 5.89452 10.2726 5.23358C9.4078 4.68046 8.54296 4.12733 7.67811 3.57421C7.20468 3.27186 6.73358 2.96952 6.26014 2.66718C5.93905 2.46093 5.5828 2.35546 5.19843 2.44218C4.60546 2.57577 4.22811 3.12186 4.22577 3.71249C4.22577 4.16952 4.22577 4.62421 4.22577 5.08124C4.22577 6.01874 4.22577 6.95624 4.22577 7.89374C4.22577 9.08436 4.22577 10.2726 4.22577 11.4633C4.22577 12.6844 4.22577 13.9078 4.22577 15.1289C4.22577 16.1625 4.22577 17.1961 4.22577 18.232C4.22577 18.8508 4.22577 19.4672 4.22577 20.0859C4.22577 20.168 4.22577 20.25 4.22577 20.3344C4.22577 20.5172 4.38749 20.6953 4.57733 20.6859C4.76952 20.6719 4.93124 20.5266 4.93124 20.3297Z" fill="#264065"/>
</svg>
