<svg width="80" height="80" viewBox="0 0 80 80" fill="none" xmlns="http://www.w3.org/2000/svg">
<path d="M40 43.3334C38 43.3334 36.6667 42 36.6667 40C36.6667 38 38 36.6667 40 36.6667C42 36.6667 43.3334 38 43.3334 40C43.3334 42 42 43.3334 40 43.3334Z" fill="#9B9A78"/>
<path d="M60 16.6667V56.6667C60 58.3333 58.3333 60 56.6667 60H50V24.6667C50 21.6667 48 19.3333 45.3333 18.3333L20 10H53.3333C57 10 60 13 60 16.6667Z" fill="#9B9A78"/>
<path d="M53.3334 6.66669H20H19.6667H19.3334C19 6.66669 18.6667 7.00002 18.3334 7.00002C18.3334 7.00002 18.3334 7.00002 18 7.00002C18 7.00002 18 7.00002 17.6667 7.33335C17.6667 7.66669 17.3334 8.00002 17.3334 8.33335C17 8.66669 16.6667 9.00002 16.6667 9.33335C16.6667 9.66669 16.6667 10 16.6667 10V57.6667C16.6667 60.6667 18.3334 63 21.3334 64L44.6667 71.6667C45.3334 72 46 72 46.6667 72C48 72 49.3334 71.6667 50.6667 70.6667C52.3334 69.3334 53.3334 67.3334 53.3334 65.3334V63.3334H56.6667C60.3334 63.3334 63.3334 60.3334 63.3334 56.6667V16.6667C63.3334 11 59 6.66669 53.3334 6.66669ZM46.6667 65.3334L23.3334 57.6667V14.6667L44.3334 21.6667C45.6667 22 46.6667 23.3334 46.6667 24.6667V60V65.3334ZM56.6667 56.6667H53.3334V24.6667C53.3334 20.3334 50.6667 16.6667 46.3334 15.3334L40.6667 13.3334H53.3334C55.3334 13.3334 56.6667 14.6667 56.6667 16.6667V56.6667Z" fill="#313131"/>
</svg>
