<svg width="80" height="80" viewBox="0 0 80 80" fill="none" xmlns="http://www.w3.org/2000/svg">
<path d="M6.15383 30.1538C5.3846 30.1538 4.61537 29.8462 3.99998 29.2308C2.76921 28 2.76921 26.1538 3.99998 24.9231C13.5384 15.2308 26.4615 10 40 10C53.5384 10 66.4615 15.2308 76 24.9231C77.2308 26.1538 77.2308 28 76 29.2308C74.7692 30.4615 72.9231 30.4615 71.6923 29.2308C63.2307 20.7692 52 16.1538 40 16.1538C28 16.1538 16.7692 20.7692 8.30767 29.2308C7.69229 29.8462 6.92306 30.1538 6.15383 30.1538V30.1538Z" fill="#313131"/>
<path d="M14.7692 38.7693C14 38.7693 13.2307 38.4616 12.6153 37.8462C11.3846 36.6154 11.3846 34.7693 12.6153 33.5385C19.8461 26.3077 29.6923 22.1539 40 22.1539C50.3076 22.1539 60 26.1539 67.3846 33.5385C68.6153 34.7693 68.6153 36.6154 67.3846 37.8462C66.1538 39.0769 64.3076 39.0769 63.0769 37.8462C56.923 31.6923 48.7692 28.3077 40.1538 28.3077C31.5384 28.3077 23.3846 31.6923 17.2307 37.8462C16.4615 38.4616 15.6923 38.7693 14.7692 38.7693V38.7693Z" fill="#313131"/>
<path d="M23.5385 47.5384C22.7692 47.5384 22 47.2307 21.3846 46.6154C20.1539 45.3846 20.1539 43.5384 21.3846 42.3077C26.3077 37.3846 32.9231 34.6154 40 34.6154C47.0769 34.6154 53.6923 37.3846 58.6154 42.3077C59.8462 43.5384 59.8462 45.3846 58.6154 46.6154C57.3846 47.8461 55.5385 47.8461 54.3077 46.6154C50.4615 42.7692 45.3846 40.7692 40 40.7692C34.6154 40.7692 29.5385 42.923 25.6923 46.7692C25.0769 47.2307 24.3077 47.5384 23.5385 47.5384V47.5384Z" fill="#313131"/>
<path d="M40 66.9231C44.5882 66.9231 48.3076 63.2036 48.3076 58.6154C48.3076 54.0272 44.5882 50.3077 40 50.3077C35.4117 50.3077 31.6923 54.0272 31.6923 58.6154C31.6923 63.2036 35.4117 66.9231 40 66.9231Z" fill="#9B9A78"/>
<path d="M40 70C37.0769 70 34.1538 68.923 32 66.6154C27.5384 62.1538 27.5384 54.923 32 50.4615C36.4615 46 43.6923 46 48.1538 50.4615C50.3077 52.6154 51.5384 55.5384 51.5384 58.4615C51.5384 61.3846 50.3077 64.3077 48.1538 66.4615C45.8461 68.9231 42.923 70 40 70ZM40 53.3846C38.6153 53.3846 37.2307 53.8461 36.3077 54.9231C34.3077 56.9231 34.3077 60.3077 36.3077 62.3077C38.3077 64.3077 41.6923 64.3077 43.6923 62.3077C44.6153 61.3846 45.2307 60 45.2307 58.6154C45.2307 57.2307 44.6153 55.8461 43.6923 54.9231C42.7692 53.8461 41.3846 53.3846 40 53.3846V53.3846Z" fill="#313131"/>
</svg>
