<svg width="32" height="32" viewBox="0 0 32 32" fill="none" xmlns="http://www.w3.org/2000/svg">
<path d="M2.66667 14.6667H10.6667C11.0203 14.6667 11.3594 14.5262 11.6095 14.2761C11.8595 14.0261 12 13.687 12 13.3333V5.33333C12 4.97971 11.8595 4.64057 11.6095 4.39052C11.3594 4.14048 11.0203 4 10.6667 4H2.66667C2.31305 4 1.97391 4.14048 1.72386 4.39052C1.47381 4.64057 1.33334 4.97971 1.33334 5.33333V13.3333C1.33334 13.687 1.47381 14.0261 1.72386 14.2761C1.97391 14.5262 2.31305 14.6667 2.66667 14.6667ZM4 6.66667H9.33334V12H4V6.66667ZM29.3333 8H16C15.6464 8 15.3072 8.14048 15.0572 8.39052C14.8071 8.64057 14.6667 8.97971 14.6667 9.33333C14.6667 9.68695 14.8071 10.0261 15.0572 10.2761C15.3072 10.5262 15.6464 10.6667 16 10.6667H29.3333C29.687 10.6667 30.0261 10.5262 30.2761 10.2761C30.5262 10.0261 30.6667 9.68695 30.6667 9.33333C30.6667 8.97971 30.5262 8.64057 30.2761 8.39052C30.0261 8.14048 29.687 8 29.3333 8ZM29.3333 21.3333H16C15.6464 21.3333 15.3072 21.4738 15.0572 21.7239C14.8071 21.9739 14.6667 22.313 14.6667 22.6667C14.6667 23.0203 14.8071 23.3594 15.0572 23.6095C15.3072 23.8595 15.6464 24 16 24H29.3333C29.687 24 30.0261 23.8595 30.2761 23.6095C30.5262 23.3594 30.6667 23.0203 30.6667 22.6667C30.6667 22.313 30.5262 21.9739 30.2761 21.7239C30.0261 21.4738 29.687 21.3333 29.3333 21.3333ZM5.256 26.6667H5.272C5.6216 26.6655 5.95677 26.5272 6.20534 26.2813L11.6 20.948C11.7384 20.8289 11.8509 20.6826 11.9304 20.5182C12.01 20.3538 12.0549 20.1749 12.0625 19.9924C12.07 19.81 12.04 19.6279 11.9742 19.4575C11.9085 19.2872 11.8085 19.1321 11.6804 19.002C11.5523 18.8718 11.3988 18.7694 11.2295 18.701C11.0601 18.6327 10.8786 18.5998 10.696 18.6045C10.5135 18.6092 10.3338 18.6513 10.1682 18.7283C10.0026 18.8053 9.8546 18.9155 9.73334 19.052L5.29467 23.4373L3.62534 21.704C3.50356 21.5781 3.35817 21.4774 3.19749 21.4077C3.0368 21.338 2.86396 21.3006 2.68883 21.2977C2.33513 21.2919 1.99359 21.4267 1.73934 21.6727C1.48508 21.9186 1.33894 22.2555 1.33307 22.6092C1.32719 22.9629 1.46206 23.3044 1.708 23.5587L4.31334 26.2667C4.43635 26.3922 4.58296 26.4921 4.74474 26.5608C4.90652 26.6294 5.08027 26.6654 5.256 26.6667Z" fill="#F4F3F8"/>
</svg>
