<svg width="96" height="96" viewBox="0 0 96 96" fill="none" xmlns="http://www.w3.org/2000/svg">
<path d="M40.4237 30.9891C39.8359 33.1386 39.3822 35.2335 39.0374 37.2509C39.0374 37.2509 37.7008 50.2142 38.0343 58.5675C38.1182 60.6703 39.4582 62.521 41.4294 63.2582C44.3303 64.3432 49.3603 65.6098 57.0343 65.6098C66.8328 65.6098 74.7761 63.2887 74.7761 60.4255C74.7761 60.4255 78.0635 47.0756 73.4634 30.6277L40.4237 30.9891Z" fill="#E4E5E6"/>
<path d="M74.771 60.4272C74.771 63.2869 66.8272 65.6098 57.0317 65.6098C55.9031 65.6098 54.8347 65.5824 53.8213 65.5331C62.165 65.1112 68.5091 62.9857 68.5091 60.4272C68.5091 60.4272 71.7907 47.1148 67.2161 30.6907L73.4615 30.6251C78.058 47.0766 74.771 60.4272 74.771 60.4272Z" fill="#D4D4D4"/>
<path d="M44.3282 21.4338C42.6295 22.1362 41.0902 23.4254 39.9135 25.4729C39.2379 26.6483 38.7788 28.2322 38.7788 28.2322C38.5736 28.7763 38.6346 29.3946 38.9817 29.863L38.6606 29.0649C38.6606 31.5663 46.7274 33.5942 56.6782 33.5942C66.6291 33.5942 74.6958 31.5663 74.6958 29.0649L74.3701 29.863C74.7172 29.3946 74.7782 28.7763 74.573 28.2322C74.573 28.2322 74.1139 26.6483 73.4383 25.4729C72.2616 23.4254 70.7223 22.1362 69.0237 21.4338H44.3282Z" fill="#E4E5E6"/>
<path d="M38.688 28.9541L38.9838 29.6992C38.8196 29.48 38.7209 29.2225 38.688 28.9541ZM68.4907 29.6992L68.7921 28.9706C68.7537 29.228 68.6551 29.48 68.4907 29.6992Z" fill="#D4D4D4"/>
<path d="M74.6986 29.0634C74.6986 31.567 66.6342 33.5938 56.6797 33.5938C55.677 33.5938 54.6965 33.5719 53.7431 33.5282C62.2952 33.183 68.8201 31.315 68.8201 29.0634L68.7928 29.1292C68.8421 28.8334 68.8038 28.5212 68.6941 28.2307C68.6941 28.2307 68.234 26.6476 67.5602 25.4699C66.3822 23.4265 64.8428 22.1336 63.1444 21.4324H69.0284C70.7266 22.1336 72.2662 23.4265 73.4441 25.4699C74.118 26.6476 74.5781 28.2307 74.5781 28.2307C74.6876 28.5212 74.7205 28.8334 74.6713 29.1292L74.6986 29.0634ZM38.688 28.9539L38.9839 29.699C38.8196 29.4798 38.7209 29.2223 38.688 28.9539Z" fill="#D4D4D4"/>
<path d="M68.791 28.971C68.7526 29.2283 68.654 29.4801 68.4896 29.6992L68.791 28.971Z" fill="#D4D4D4"/>
<path d="M41.6312 40.6521C41.6 40.6521 41.5687 40.6502 41.5372 40.6468C41.0862 40.5953 40.7624 40.1881 40.8137 39.7372C41.0457 37.7002 41.4074 35.6801 41.8889 33.7328C41.9977 33.2922 42.4434 33.0231 42.8837 33.1324C43.3242 33.2412 43.593 33.6867 43.484 34.1273C43.0195 36.0063 42.6705 37.9562 42.4465 39.9232C42.3986 40.3426 42.0433 40.6521 41.6312 40.6521Z" fill="white"/>
<path d="M59.7072 41.0842C59.7072 41.0842 58.9909 39.4456 59.7676 36.9109C59.7676 36.9109 62.0202 39.1384 60.7774 42.0571L59.7072 41.0842ZM60.622 42.4412C60.622 42.4412 57.5927 43.0557 55.4955 41.2891C55.4955 41.2891 57.5927 40.4442 59.5346 40.9818L60.622 42.4412ZM62.2532 43.9774C62.2532 43.9774 62.141 42.0828 63.6945 40.1625C63.6945 40.1625 65.2049 42.7484 63.4183 45.3599L62.2532 43.9774ZM65.0141 47.2955C65.0141 47.2955 65.2025 45.0322 67.2158 43.1325C67.2158 43.1325 68.4734 46.3692 66.0971 49.0011L65.0141 47.2955Z" fill="#D4D4D4"/>
<path d="M64.6118 47.5002C64.6118 47.5002 62.4379 47.2141 60.1753 48.8162C60.1753 48.8162 63.0471 50.6883 66.1048 48.8699L64.6118 47.5002ZM67.0982 51.0941C67.0982 51.0941 64.4951 50.8442 61.936 52.6563C61.936 52.6563 65.3285 54.7 68.7869 52.6433L67.0982 51.0941Z" fill="#D4D4D4"/>
<path d="M67.434 50.8198C67.434 50.8198 67.7818 47.8743 70.1696 45.8465C70.1696 45.8465 71.3968 49.9762 68.5551 52.8097L67.434 50.8198ZM62.0664 44.1405C62.0664 44.1405 60.14 43.7937 58.0522 45.1296C58.0522 45.1296 60.534 46.9213 63.3407 45.4254L62.0664 44.1405ZM63.8088 39.4562C63.5063 39.4562 63.261 39.2109 63.261 38.9083C63.261 38.8994 63.26 37.9897 63.1845 36.8715C63.1642 36.5696 63.3924 36.3084 63.6942 36.2879C63.999 36.2683 64.2574 36.4959 64.2778 36.7976C64.3557 37.955 64.3567 38.8699 64.3567 38.9083C64.3567 39.2109 64.1114 39.4562 63.8088 39.4562ZM57.0164 45.6783C56.8422 45.6783 56.4097 45.6499 55.4604 45.4623C55.1635 45.4037 54.9705 45.1155 55.0292 44.8187C55.0878 44.522 55.3757 44.3285 55.6728 44.3875C56.693 44.5892 57.0078 44.5821 57.0229 44.5826C57.3186 44.5757 57.5757 44.8037 57.5918 45.1004C57.6078 45.3969 57.3909 45.6521 57.0948 45.6757C57.0786 45.6771 57.0533 45.6783 57.0164 45.6783ZM67.5059 42.4516C67.4468 42.4516 67.3866 42.442 67.3277 42.4217C67.042 42.3233 66.8899 42.0123 66.9875 41.7264C66.9946 41.7051 67.2224 41.0072 67.2224 39.9837C67.2224 39.6811 67.4677 39.4358 67.7702 39.4358C68.0727 39.4358 68.318 39.6811 68.318 39.9837C68.318 41.2132 68.036 42.047 68.0239 42.0819C67.9458 42.309 67.7333 42.4516 67.5059 42.4516ZM58.657 49.4668C58.3761 49.4668 57.8085 49.4286 57.1603 49.1722C56.8789 49.0609 56.741 48.7426 56.8523 48.4613C56.9634 48.1798 57.2816 48.0421 57.5631 48.1533C58.2025 48.4062 58.7386 48.3689 58.7441 48.3689C59.0473 48.3428 59.3106 48.5671 59.3362 48.8684C59.3617 49.1699 59.1381 49.435 58.8366 49.4605C58.8162 49.4623 58.7536 49.4668 58.657 49.4668Z" fill="#D4D4D4"/>
<path d="M70.5405 56.0925C70.3619 56.0925 70.187 56.0056 70.0819 55.8451C66.4067 50.2422 62.2685 44.8305 57.7823 39.7605C57.5818 39.5339 57.6031 39.1876 57.8296 38.9871C58.0562 38.7866 58.4025 38.808 58.603 39.0345C63.1239 44.1437 67.2942 49.5975 70.9981 55.2443C71.164 55.4972 71.0934 55.8368 70.8404 56.0028C70.7478 56.0635 70.6435 56.0925 70.5405 56.0925ZM60.6782 53.2445H58.8084C58.5059 53.2445 58.2606 52.9992 58.2606 52.6967C58.2606 52.3942 58.5059 52.1489 58.8084 52.1489H60.6782C60.9807 52.1489 61.226 52.3942 61.226 52.6967C61.226 52.9992 60.9807 53.2445 60.6782 53.2445ZM70.571 45.4229C70.5137 45.4229 70.4556 45.4138 70.3982 45.3948C70.1113 45.2996 69.9559 44.9897 70.0506 44.7026C70.0531 44.6953 70.2964 43.9495 70.2964 43.1837C70.2964 42.8811 70.5417 42.6358 70.8443 42.6358C71.1468 42.6358 71.3921 42.8811 71.3921 43.1837C71.3921 44.1321 71.1027 45.0114 71.0903 45.0484C71.0139 45.2779 70.8002 45.4229 70.571 45.4229Z" fill="#D4D4D4"/>
<path d="M59.0508 41.0842C59.0508 41.0842 58.3345 39.4456 59.1112 36.9109C59.1112 36.9109 61.3638 39.1384 60.121 42.0571L59.0508 41.0842ZM59.9657 42.4412C59.9657 42.4412 56.9363 43.0557 54.8391 41.2891C54.8391 41.2891 56.9363 40.4442 58.8782 40.9818L59.9657 42.4412ZM61.5969 43.9774C61.5969 43.9774 61.4847 42.0828 63.0382 40.1625C63.0382 40.1625 64.5485 42.7484 62.762 45.3599L61.5969 43.9774ZM64.3577 47.2955C64.3577 47.2955 64.5461 45.0322 66.5594 43.1325C66.5594 43.1325 67.817 46.3692 65.4407 49.0011L64.3577 47.2955Z" fill="#FFAD31"/>
<path d="M63.9554 47.5002C63.9554 47.5002 61.7815 47.2141 59.5189 48.8162C59.5189 48.8162 62.3907 50.6883 65.4484 48.8699L63.9554 47.5002ZM66.4419 51.0941C66.4419 51.0941 63.8388 50.8442 61.2796 52.6563C61.2796 52.6563 64.6721 54.7 68.1306 52.6433L66.4419 51.0941Z" fill="#FFAD31"/>
<path d="M66.778 50.8198C66.778 50.8198 67.1258 47.8743 69.5137 45.8465C69.5137 45.8465 70.7409 49.9762 67.8992 52.8097L66.778 50.8198ZM61.4102 44.1405C61.4102 44.1405 59.4838 43.7937 57.3959 45.1296C57.3959 45.1296 59.8778 46.9213 62.6846 45.4254L61.4102 44.1405ZM63.1527 39.4562C62.8502 39.4562 62.6049 39.2109 62.6049 38.9083C62.6049 38.8994 62.6038 37.9897 62.5284 36.8715C62.5081 36.5696 62.7362 36.3084 63.0381 36.2879C63.3429 36.2683 63.6013 36.4959 63.6217 36.7976C63.6996 37.955 63.7006 38.8699 63.7006 38.9083C63.7006 39.2109 63.4553 39.4562 63.1527 39.4562ZM56.36 45.6783C56.1859 45.6783 55.7534 45.6499 54.804 45.4623C54.5071 45.4037 54.3141 45.1155 54.3728 44.8187C54.4314 44.522 54.7194 44.3285 55.0164 44.3875C56.0367 44.5892 56.3515 44.5821 56.3666 44.5826C56.6624 44.5757 56.9194 44.8037 56.9355 45.1004C56.9515 45.3969 56.7346 45.6521 56.4385 45.6757C56.4222 45.6771 56.397 45.6783 56.36 45.6783ZM66.8499 42.4516C66.7908 42.4516 66.7306 42.442 66.6717 42.4217C66.386 42.3233 66.2339 42.0123 66.3315 41.7264C66.3386 41.7051 66.5664 41.0072 66.5664 39.9837C66.5664 39.6811 66.8117 39.4358 67.1142 39.4358C67.4167 39.4358 67.6621 39.6811 67.6621 39.9837C67.6621 41.2132 67.38 42.047 67.3679 42.0819C67.2899 42.309 67.0773 42.4516 66.8499 42.4516ZM58.0007 49.4668C57.7199 49.4668 57.1522 49.4286 56.504 49.1722C56.2226 49.0609 56.0846 48.7426 56.1959 48.4613C56.3071 48.1798 56.6253 48.0421 56.9068 48.1533C57.5463 48.4062 58.0823 48.3689 58.0878 48.3689C58.391 48.3428 58.6544 48.5671 58.6799 48.8684C58.7055 49.1699 58.4818 49.435 58.1804 49.4605C58.1599 49.4623 58.0973 49.4668 58.0007 49.4668Z" fill="#FFAD31"/>
<path d="M69.8829 56.0925C69.7044 56.0925 69.5294 56.0056 69.4243 55.8451C65.7493 50.2422 61.6112 44.8305 57.1252 39.7605C56.9247 39.5339 56.9459 39.1876 57.1725 38.9871C57.3991 38.7866 57.7454 38.808 57.9459 39.0345C62.4666 44.1437 66.6367 49.5975 70.3405 55.2443C70.5065 55.4972 70.4359 55.8368 70.1828 56.0028C70.0902 56.0635 69.9859 56.0925 69.8829 56.0925ZM60.021 53.2445H58.1513C57.8488 53.2445 57.6035 52.9992 57.6035 52.6967C57.6035 52.3942 57.8488 52.1489 58.1513 52.1489H60.021C60.3235 52.1489 60.5688 52.3942 60.5688 52.6967C60.5688 52.9992 60.3235 53.2445 60.021 53.2445ZM69.9134 45.4229C69.8562 45.4229 69.798 45.4138 69.7406 45.3948C69.4537 45.2996 69.2983 44.9897 69.393 44.7026C69.3955 44.6953 69.6388 43.9495 69.6388 43.1837C69.6388 42.8811 69.8841 42.6358 70.1867 42.6358C70.4892 42.6358 70.7345 42.8811 70.7345 43.1837C70.7345 44.1321 70.4451 45.0114 70.4328 45.0484C70.3563 45.2779 70.1427 45.4229 69.9134 45.4229Z" fill="#FFAD31"/>
<path d="M70.7704 23.0489C70.7704 23.8871 69.6199 24.6487 67.6971 25.2459C65.1386 26.051 61.2107 26.5661 56.8006 26.5661C52.248 26.5661 48.2051 26.0183 45.6521 25.1636C43.8773 24.5829 42.8308 23.8487 42.8308 23.0489C42.8308 21.1096 49.087 19.5374 56.8006 19.5374C64.5196 19.5373 70.7704 21.1095 70.7704 23.0489Z" fill="#E4E5E6"/>
<path d="M70.7704 23.0489C70.7704 23.1147 70.7649 23.1805 70.7484 23.2462C68.2065 22.3805 64.1252 21.8219 59.5178 21.8219C52.0674 21.8219 45.9754 23.29 45.57 25.1361C43.8444 24.561 42.8308 23.8378 42.8308 23.0489C42.8308 21.1095 49.087 19.5373 56.8006 19.5373C64.5196 19.5373 70.7704 21.1095 70.7704 23.0489Z" fill="#D4D4D4"/>
<path d="M67.6961 25.2454C65.1376 26.0506 61.2097 26.5657 56.7996 26.5657C52.2471 26.5657 48.2041 26.0178 45.6511 25.1632C45.7608 25.0591 45.8319 25.0043 45.8319 25.0043C48.3795 23.6731 52.2361 22.8184 56.5476 22.8184C61.0014 22.8184 64.8802 23.8867 67.5043 25.1357C67.5754 25.1687 67.6358 25.2071 67.6961 25.2454Z" fill="#FFAD31"/>
<path d="M67.6957 25.2453C65.1373 26.0506 61.2093 26.5657 56.7992 26.5657C55.0846 26.5657 53.4356 26.4889 51.9181 26.341C54.3761 26.2894 56.648 26.0755 58.5721 25.7429C59.4999 25.5825 59.6006 24.2905 58.7059 23.9976C57.3236 23.5449 55.6916 23.0757 54.3998 22.8897C55.1009 22.8404 55.8186 22.8184 56.5473 22.8184C61.0011 22.8184 64.8798 23.8867 67.504 25.1357C67.5751 25.1687 67.6354 25.207 67.6957 25.2453Z" fill="#FF8D29"/>
<path d="M22.9951 73.0326C16.4509 57.3186 22.9951 42.0668 22.9951 42.0668H50.4701C50.4701 42.0668 57.0143 57.3186 50.4701 73.0326H22.9951Z" fill="#FF6B6E"/>
<path d="M22.9681 52.3666C22.9291 52.3666 22.8896 52.3638 22.8499 52.358C22.4007 52.2933 22.089 51.8766 22.1538 51.4275C22.446 49.3989 22.8674 47.3904 23.4064 45.4576C23.5283 45.0205 23.9807 44.7645 24.4186 44.8867C24.8558 45.0086 25.1114 45.4619 24.9894 45.899C24.4694 47.7641 24.0626 49.703 23.7804 51.6618C23.7214 52.0713 23.37 52.3666 22.9681 52.3666Z" fill="#FFE8C4"/>
<path d="M50.4711 73.033H45.9027C52.4487 57.3211 45.9027 42.0693 45.9027 42.0693H50.4711C50.4711 42.0693 57.0117 57.3211 50.4711 73.033Z" fill="#DB4A4D"/>
<path d="M50.5595 38.6913H22.9813V42.0669H50.5595V38.6913Z" fill="#FFAD31"/>
<path d="M50.5648 38.6893H45.9027V42.0693H50.5648V38.6893Z" fill="#FF8D29"/>
<path d="M50.5595 73.0325H22.9813V76.462H50.5595V73.0325Z" fill="#FFAD31"/>
<path d="M50.5648 73.033H45.9027V76.4624H50.5648V73.033Z" fill="#FF8D29"/>
<path d="M37.1243 58.3802C36.5963 55.9993 34.2077 54.487 31.7997 55.0091C29.3918 55.5312 27.8624 57.8931 28.3904 60.274L30.6888 59.7756C30.4387 58.6478 31.1631 57.5291 32.3037 57.2817C33.4444 57.0344 34.5758 57.7507 34.8259 58.8786L37.1243 58.3802Z" fill="#DB4A4D"/>
<path d="M29.7292 60.9037C30.3678 60.7859 30.8112 60.2881 30.7196 59.7917C30.628 59.2954 30.036 58.9885 29.3974 59.1063C28.7588 59.2241 28.3154 59.7219 28.407 60.2183C28.4986 60.7146 29.0905 61.0215 29.7292 60.9037Z" fill="#DB4A4D"/>
<path d="M36.1634 59.5171C36.802 59.3993 37.2454 58.9012 37.1538 58.4047C37.0622 57.9081 36.4702 57.6011 35.8316 57.7189C35.193 57.8368 34.7496 58.3349 34.8412 58.8314C34.9328 59.328 35.5247 59.635 36.1634 59.5171Z" fill="#DB4A4D"/>
<path d="M35.0013 64.7577C36.2812 66.8335 39.0338 67.4784 41.1372 66.1953C43.2406 64.9122 43.9106 62.1795 42.6307 60.1036L40.623 61.3284C41.2293 62.3117 40.9119 63.6061 39.9155 64.2139C38.9191 64.8217 37.6154 64.5163 37.0091 63.5329L35.0013 64.7577Z" fill="#DB4A4D"/>
<path d="M42.0626 61.5353C42.6273 61.2145 42.8829 60.5985 42.6334 60.1595C42.384 59.7204 41.724 59.6246 41.1592 59.9455C40.5945 60.2663 40.3389 60.8823 40.5884 61.3213C40.8378 61.7603 41.4978 61.8561 42.0626 61.5353Z" fill="#DB4A4D"/>
<path d="M36.438 64.9562C37.0027 64.6352 37.2583 64.019 37.0088 63.5799C36.7594 63.1407 36.0994 63.0449 35.5346 63.3658C34.9699 63.6867 34.7143 64.3029 34.9638 64.7421C35.2132 65.1812 35.8732 65.2771 36.438 64.9562Z" fill="#DB4A4D"/>
<path d="M30.325 71.0377C32.4429 69.8282 33.1802 67.0984 31.9684 64.9527C30.7565 62.807 28.0475 62.0453 25.9296 63.2549L27.0863 65.303C28.0896 64.73 29.3727 65.0908 29.9467 66.1072C30.5208 67.1237 30.1716 68.4166 29.1683 68.9896L30.325 71.0377Z" fill="#DB4A4D"/>
<path d="M27.0807 65.3429C27.5278 65.1083 27.6458 64.4518 27.3441 63.8765C27.0425 63.3012 26.4355 63.025 25.9884 63.2595C25.5413 63.4941 25.4233 64.1506 25.725 64.7259C26.0266 65.3012 26.6336 65.5774 27.0807 65.3429Z" fill="#DB4A4D"/>
<path d="M30.3075 71.0772C30.7547 70.8427 30.8727 70.1862 30.571 69.611C30.2693 69.0358 29.6622 68.7596 29.215 68.9941C28.7678 69.2287 28.6498 69.8851 28.9515 70.4604C29.2532 71.0356 29.8603 71.3118 30.3075 71.0772Z" fill="#DB4A4D"/>
<path d="M45.6401 70.9331C48.0701 71.1406 50.2271 69.3131 50.4483 66.8592C50.6696 64.4053 48.8727 62.24 46.4428 62.0325L46.2315 64.3747C47.3826 64.4731 48.2338 65.4986 48.1289 66.6611C48.0241 67.8235 47.0025 68.6892 45.8514 68.5908L45.6401 70.9331Z" fill="#DB4A4D"/>
<path d="M47.259 63.3467C47.3375 62.7016 46.9948 62.1292 46.4936 62.0682C45.9925 62.0072 45.5226 62.4806 45.4442 63.1257C45.3657 63.7708 45.7084 64.3432 46.2096 64.4042C46.7107 64.4652 47.1806 63.9918 47.259 63.3467Z" fill="#DB4A4D"/>
<path d="M46.6576 69.9015C46.736 69.2569 46.3933 68.685 45.8922 68.624C45.391 68.563 44.9212 69.0361 44.8427 69.6807C44.7643 70.3252 45.107 70.8972 45.6081 70.9582C46.1093 71.0192 46.5791 70.5461 46.6576 69.9015Z" fill="#DB4A4D"/>
<path d="M36.027 58.3802C35.4989 55.9993 33.1101 54.487 30.7019 55.0091C28.2937 55.5312 26.7641 57.8931 27.2922 60.274L29.5908 59.7756C29.3406 58.6478 30.0651 57.5291 31.2059 57.2817C32.3467 57.0344 33.4782 57.7507 33.7284 58.8786L36.027 58.3802Z" fill="#FFAD31"/>
<path d="M28.6334 60.9046C29.2721 60.7867 29.7156 60.2884 29.624 59.7916C29.5324 59.2949 28.9403 58.9877 28.3016 59.1056C27.6628 59.2235 27.2193 59.7218 27.3109 60.2186C27.4025 60.7154 27.9946 61.0225 28.6334 60.9046Z" fill="white"/>
<path d="M35.0675 59.5181C35.7062 59.4003 36.1497 58.9022 36.0581 58.4056C35.9665 57.9091 35.3744 57.6021 34.7356 57.7199C34.0969 57.8378 33.6534 58.3358 33.745 58.8324C33.8366 59.3289 34.4287 59.6359 35.0675 59.5181Z" fill="white"/>
<path d="M33.9071 64.7577C35.187 66.8335 37.9397 67.4784 40.0432 66.1953C42.1466 64.9122 42.8167 62.1795 41.5367 60.1036L39.5289 61.3284C40.1352 62.3117 39.8179 63.6061 38.8214 64.2139C37.825 64.8217 36.5212 64.5163 35.9149 63.5329L33.9071 64.7577Z" fill="#FFAD31"/>
<path d="M40.9661 61.5344C41.5308 61.2136 41.7864 60.5978 41.537 60.1588C41.2875 59.7199 40.6275 59.6241 40.0627 59.9448C39.498 60.2656 39.2424 60.8815 39.4918 61.3204C39.7413 61.7594 40.4013 61.8552 40.9661 61.5344Z" fill="white"/>
<path d="M35.3437 64.9552C35.9085 64.6344 36.1641 64.0185 35.9146 63.5795C35.6652 63.1405 35.0051 63.0447 34.4404 63.3655C33.8757 63.6863 33.6201 64.3022 33.8695 64.7412C34.119 65.1802 34.779 65.2761 35.3437 64.9552Z" fill="white"/>
<path d="M29.2307 71.0377C31.3485 69.8283 32.0856 67.0989 30.8739 64.9534C29.6622 62.808 26.9534 62.0465 24.8356 63.2558L25.9922 65.3037C26.9954 64.7308 28.2784 65.0915 28.8524 66.1078C29.4265 67.1241 29.0773 68.4169 28.0741 68.9898L29.2307 71.0377Z" fill="#FFAD31"/>
<path d="M25.9841 65.3416C26.4313 65.1071 26.5493 64.4506 26.2476 63.8754C25.946 63.3001 25.3389 63.0239 24.8917 63.2585C24.4444 63.493 24.3265 64.1495 24.6281 64.7248C24.9298 65.3 25.5369 65.5762 25.9841 65.3416Z" fill="white"/>
<path d="M29.2145 71.077C29.6617 70.8425 29.7796 70.186 29.478 69.6108C29.1763 69.0355 28.5692 68.7593 28.122 68.9939C27.6748 69.2284 27.5568 69.8849 27.8585 70.4601C28.1602 71.0354 28.7673 71.3115 29.2145 71.077Z" fill="white"/>
<path d="M44.5448 70.9339C46.9748 71.1415 49.1317 69.3137 49.353 66.8595C49.5743 64.4053 47.7774 62.2399 45.3474 62.0323L45.1362 64.3748C46.2873 64.4731 47.1384 65.4988 47.0336 66.6614C46.9288 67.824 45.9071 68.6897 44.756 68.5914L44.5448 70.9339Z" fill="#FFAD31"/>
<path d="M46.1651 63.3467C46.2436 62.7019 45.9009 62.1297 45.3997 62.0687C44.8986 62.0077 44.4287 62.481 44.3503 63.1258C44.2718 63.7706 44.6145 64.3428 45.1157 64.4038C45.6169 64.4648 46.0867 63.9915 46.1651 63.3467Z" fill="white"/>
<path d="M45.5639 69.9013C45.6424 69.2562 45.2997 68.6838 44.7985 68.6228C44.2973 68.5618 43.8274 69.0352 43.749 69.6803C43.6705 70.3253 44.0132 70.8977 44.5144 70.9588C45.0156 71.0198 45.4855 70.5463 45.5639 69.9013Z" fill="white"/>
</svg>
