<svg width="96" height="96" viewBox="0 0 96 96" fill="none" xmlns="http://www.w3.org/2000/svg">
<path d="M31.7133 46.2154C31.7133 46.2154 31.0809 30.3042 20.2731 18.6592C20.2731 18.6592 26.7153 28.5968 28.7009 46.1169L29.9637 47.2596L31.7133 46.2154Z" fill="#89CF6E"/>
<path d="M31.7147 46.2143L29.9656 47.2573L29.3825 46.7325L29.9202 46.4151C29.9202 46.4151 29.525 36.5099 24.0509 26.611C22.185 21.7329 20.4878 18.9926 20.2934 18.6816C31.0797 30.3296 31.7147 46.2143 31.7147 46.2143Z" fill="#6DBF4D"/>
<path d="M34.168 45.3252C32.57 36.9879 30.8298 14.5125 30.8298 14.5125C26.9 23.352 29.9437 43.0237 31.1302 46.8288L34.168 45.3252Z" fill="#89CF6E"/>
<path d="M34.1708 45.3265L31.1325 46.8295C31.0743 46.6481 31.0159 46.4214 30.9511 46.1687C31.9528 45.6736 32.51 44.5848 32.3332 43.4815C31.2484 36.711 30.1607 24.642 29.636 18.4352C29.9276 16.984 30.3227 15.6561 30.828 14.5094C30.828 14.5094 32.5706 36.9891 34.1708 45.3265Z" fill="#6DBF4D"/>
<path d="M44.2044 62.4876L37.7196 65.9146L31.2283 69.728C26.9721 68.6785 23.2151 64.9948 22.4897 60.4405C21.654 55.1802 25.8453 49.3756 28.7021 46.1171C28.7021 46.1171 29.9588 46.577 31.7145 46.2143C33.1979 45.9098 34.1049 45.0546 34.1049 45.0546C34.2734 45.1518 34.4418 45.2555 34.6167 45.3591C38.3481 47.6135 43.9063 51.7791 44.729 56.9811C45.0399 58.8987 44.8263 60.7774 44.2044 62.4876Z" fill="#FF6B6E"/>
<path d="M25.5738 60.1643C25.0443 60.1643 24.611 59.7394 24.6026 59.208C24.5712 57.2305 25.1081 55.0641 26.1987 52.7688C26.4288 52.284 27.0087 52.0777 27.4933 52.3081C27.978 52.5385 28.1843 53.1181 27.9538 53.6029C26.9927 55.6257 26.5189 57.5012 26.5457 59.177C26.5542 59.7137 26.1263 60.1556 25.5896 60.1641C25.5844 60.1642 25.5791 60.1643 25.5738 60.1643Z" fill="#FFD4D5"/>
<path d="M44.2044 62.4877L37.5823 66.0763C31.7062 61.6581 33.398 49.4599 33.398 49.4599C33.6313 47.782 34.0524 46.4345 34.6161 45.3591C38.3477 47.6136 43.9062 51.7791 44.729 56.9811C45.04 58.8987 44.8263 60.7775 44.2044 62.4877Z" fill="#DB4A4D"/>
<path d="M54.0201 33.6946C54.0201 33.6946 53.0511 26.8103 48.0449 24.2288C48.0449 24.2288 46.43 33.3504 52.7281 39.3741L54.0201 33.6946Z" fill="#89CF6E"/>
<path d="M54.0195 33.6919L52.7302 39.3732C52.4776 39.1335 52.238 38.8873 52.0177 38.6411L52.8469 35.0134C52.8469 35.0134 52.0047 29.0666 47.8715 26.158C47.9168 24.9595 48.0464 24.2274 48.0464 24.2274C53.0478 26.8122 54.0195 33.6919 54.0195 33.6919Z" fill="#6DBF4D"/>
<path d="M52.777 41.4629C52.2859 41.4629 51.8647 41.0936 51.8123 40.5947C51.7818 40.3046 51.148 33.4118 58.3597 26.6198C58.7502 26.2519 59.3653 26.2702 59.7334 26.6609C60.1013 27.0516 60.0829 27.6666 59.6921 28.0346C53.2194 34.1306 53.721 40.1424 53.7456 40.3953C53.7971 40.9279 53.4087 41.4041 52.8761 41.4579C52.8429 41.4612 52.8097 41.4629 52.777 41.4629Z" fill="#FFAD31"/>
<path d="M41.726 63.0793C35.8518 58.6605 37.8129 46.7561 37.8129 46.7561C39.6449 33.6841 52.7784 40.4929 52.7784 40.4929C52.7784 40.4929 66.6148 33.8669 68.0568 47.3958C68.1823 48.5729 68.2175 49.6788 68.1711 50.7161C68.1711 50.7161 67.6825 59.1111 62.3641 63.7547C57.0457 68.3983 41.726 63.0793 41.726 63.0793Z" fill="#89CF6E"/>
<path d="M40.5495 52.3803C40.5445 52.3803 40.5396 52.3803 40.5347 52.3802C39.9981 52.3721 39.5697 51.9306 39.5778 51.3939C39.6134 49.0235 39.8893 47.3222 39.9012 47.251C40.0541 46.1586 40.2972 45.1325 40.6201 44.2242C40.7999 43.7186 41.3549 43.4544 41.8611 43.6343C42.3667 43.8142 42.6308 44.3699 42.451 44.8755C42.1719 45.6604 41.9601 46.5582 41.8219 47.5439C41.8159 47.5825 41.554 49.2063 41.5206 51.4232C41.5127 51.9548 41.0793 52.3803 40.5495 52.3803Z" fill="#BDEBAB"/>
<path d="M68.1752 50.7168C68.1752 50.7168 67.6828 59.1128 62.364 63.7578C60.252 65.5976 56.5723 65.8698 52.8924 65.5264C54.7388 65.3061 56.3779 64.7684 57.5376 63.7578C62.8564 59.1128 63.3487 50.7168 63.3487 50.7168C63.3941 49.6803 63.3617 48.5724 63.2322 47.3934C62.6555 41.958 60.0771 39.7748 57.2007 39.114C61.3857 38.356 67.1517 38.9197 68.0586 47.3934C68.1817 48.5724 68.2206 49.6803 68.1752 50.7168Z" fill="#6DBF4D"/>
<path d="M63.9827 61.4927C69.8947 57.3712 71.1961 60.1258 71.1961 60.1258L70.7565 60.5135C76.5236 57.4563 75.1362 61.2555 75.1362 61.2555L75.1245 61.2075C75.1245 61.2075 82.3785 59.6004 84.0416 63.0227C85.7046 66.445 78.4917 66.2387 74.3144 63.9859L75.3393 64.5634C75.503 65.3407 75.6753 67.6834 70.8781 64.9292L71.3042 65.3315C71.3042 65.3315 69.9091 68.0408 64.1419 63.7234L63.9827 61.4927Z" fill="#89CF6E"/>
<path d="M75.1382 61.2567L75.1252 61.2049C75.1252 61.2049 75.1382 61.2049 75.1576 61.1984C75.1447 61.2373 75.1382 61.2567 75.1382 61.2567ZM74.3155 63.9838L75.339 64.5603C75.501 65.3377 75.6759 67.6825 70.8757 64.9295L71.3032 65.3312C71.3032 65.3312 69.9103 68.0388 64.1448 63.7247L64.093 63.051C67.183 63.5886 70.7719 63.7959 74.5876 63.5757C77.8008 63.3879 80.826 62.9279 83.495 62.2543C83.7152 62.4745 83.8966 62.7336 84.0391 63.0251C85.704 66.4453 78.4938 66.238 74.3155 63.9838Z" fill="#6DBF4D"/>
<path d="M62.4177 59.923C65.0927 51.8633 68.2636 53.5465 68.2636 53.5465L68.122 54.2224C71.4107 47.2697 72.7799 51.835 72.7799 51.835L72.7351 51.7978C72.7351 51.7978 78.45 45.1659 82.4332 47.2245C86.4165 49.2831 79.4616 54.174 73.9294 54.9923L75.3042 54.8149C76.0069 55.4334 77.8215 57.5238 71.3506 58.3058L72.0364 58.3852C72.0364 58.3852 72.6298 61.9269 64.1409 61.9168L62.4177 59.923Z" fill="#89CF6E"/>
<path d="M71.8085 52.0968L71.7631 52.058C71.7631 52.058 71.7696 52.0515 71.789 52.0321C71.802 52.071 71.8085 52.0968 71.8085 52.0968ZM73.9268 54.9928L75.3066 54.8179C76.0063 55.4333 77.82 57.526 71.3485 58.3099L72.0351 58.3876C72.0351 58.3876 72.6312 61.925 64.1383 61.9185L62.4152 59.9231C62.5252 59.5863 68.1507 57.3512 70.865 55.7832C75.1988 53.2825 78.7594 49.8163 81.3637 46.875C81.7265 46.9334 82.0891 47.0435 82.4325 47.2249C86.4165 49.285 79.4592 54.1765 73.9268 54.9928Z" fill="#6DBF4D"/>
<path d="M64.1753 61.4941C65.5287 65.2199 62.4215 68.9703 57.8964 70.5771C48.4206 73.9417 32.6987 75.9894 24.3202 77.7025C20.7322 78.4361 19.891 76.008 23.0795 74.2363C32.2967 69.1148 43.3113 62.0438 53.5252 58.4171C58.0338 56.8162 62.8269 57.782 64.1753 61.4941Z" fill="#FFAD31"/>
<path d="M57.8937 70.5786C48.4224 73.9407 32.6996 75.9878 24.3233 77.7045C21.6866 78.2422 20.5334 77.0762 21.3692 75.7157C29.8298 74.012 45.2674 71.9714 54.6222 68.6547C59.1505 67.048 62.2536 63.2972 60.8996 59.5723C60.6729 58.9504 60.349 58.4062 59.9473 57.9398C61.9167 58.4322 63.4909 59.6046 64.1776 61.4963C65.525 65.2212 62.4221 68.9721 57.8937 70.5786Z" fill="#FF8D29"/>
<path d="M46.5124 72.1493C46.1885 72.1493 45.8718 71.9874 45.6874 71.6924C45.0369 70.6517 44.5047 69.5102 44.106 68.2999C43.938 67.7902 44.215 67.2408 44.7247 67.0728C45.2341 66.9053 45.7839 67.182 45.9517 67.6916C46.3019 68.7541 46.7674 69.7535 47.3355 70.6623C47.62 71.1174 47.4816 71.7169 47.0266 72.0014C46.8663 72.1015 46.6883 72.1493 46.5124 72.1493ZM57.1996 68.9868C56.8757 68.9868 56.5591 68.8249 56.3747 68.5299C55.724 67.489 55.1918 66.3476 54.7931 65.1374C54.6251 64.6277 54.902 64.0783 55.4118 63.9103C55.9214 63.7427 56.471 64.0195 56.6388 64.5291C56.989 65.5914 57.4544 66.5908 58.0227 67.4998C58.3071 67.9548 58.1688 68.5544 57.7138 68.8389C57.5536 68.939 57.3755 68.9868 57.1996 68.9868ZM50.7396 67.7013C50.3532 67.7013 49.9877 67.4693 49.8363 67.0883C49.3652 65.9036 49.0412 64.688 48.8734 63.4752C48.7999 62.9436 49.1712 62.453 49.7028 62.3794C50.2311 62.3055 50.7249 62.677 50.7986 63.2087C50.945 64.2669 51.2289 65.3306 51.6422 66.3703C51.8405 66.8689 51.597 67.434 51.0983 67.6323C50.9804 67.6791 50.859 67.7013 50.7396 67.7013ZM39.3093 71.8575C38.9229 71.8575 38.5575 71.6256 38.406 71.2447C38.0079 70.2439 37.7341 69.2167 37.5923 68.1916C37.5187 67.6601 37.8899 67.1695 38.4215 67.0958C38.9529 67.0223 39.4437 67.3934 39.5174 67.9251C39.6379 68.7956 39.8715 69.6708 40.2119 70.5265C40.4102 71.0251 40.1668 71.5902 39.6681 71.7885C39.5503 71.8353 39.4287 71.8575 39.3093 71.8575Z" fill="#FFE8C4"/>
<path d="M71.8085 52.0964L71.7631 52.0576C71.7631 52.0576 71.7695 52.0511 71.789 52.0316C71.802 52.0705 71.8085 52.0964 71.8085 52.0964ZM75.1577 61.1983C75.1447 61.2372 75.1382 61.2567 75.1382 61.2567L75.1253 61.2048C75.1253 61.2048 75.1382 61.2048 75.1577 61.1983Z" fill="#6DBF4D"/>
</svg>
