<svg width="32" height="32" viewBox="0 0 32 32" fill="none" xmlns="http://www.w3.org/2000/svg">
<path d="M25.3334 9.33336H21.3334V8.00003C21.3334 6.58554 20.7715 5.22899 19.7713 4.22879C18.7711 3.2286 17.4145 2.6667 16 2.6667C14.5856 2.6667 13.229 3.2286 12.2288 4.22879C11.2286 5.22899 10.6667 6.58554 10.6667 8.00003V9.33336H6.66671C6.31309 9.33336 5.97395 9.47384 5.7239 9.72389C5.47385 9.97394 5.33337 10.3131 5.33337 10.6667L5.33337 25.3334C5.33337 26.3942 5.7548 27.4116 6.50495 28.1618C7.25509 28.9119 8.27251 29.3334 9.33337 29.3334H22.6667C23.7276 29.3334 24.745 28.9119 25.4951 28.1618C26.2453 27.4116 26.6667 26.3942 26.6667 25.3334V10.6667C26.6667 10.3131 26.5262 9.97394 26.2762 9.72389C26.0261 9.47384 25.687 9.33336 25.3334 9.33336ZM13.3334 8.00003C13.3334 7.29279 13.6143 6.61451 14.1144 6.11441C14.6145 5.61431 15.2928 5.33336 16 5.33336C16.7073 5.33336 17.3856 5.61431 17.8857 6.11441C18.3858 6.61451 18.6667 7.29279 18.6667 8.00003V9.33336H13.3334V8.00003ZM24 25.3334C24 25.687 23.8596 26.0261 23.6095 26.2762C23.3595 26.5262 23.0203 26.6667 22.6667 26.6667H9.33337C8.97975 26.6667 8.64061 26.5262 8.39057 26.2762C8.14052 26.0261 8.00004 25.687 8.00004 25.3334L8.00004 12H10.6667V13.3334C10.6667 13.687 10.8072 14.0261 11.0572 14.2762C11.3073 14.5262 11.6464 14.6667 12 14.6667C12.3537 14.6667 12.6928 14.5262 12.9428 14.2762C13.1929 14.0261 13.3334 13.687 13.3334 13.3334V12H18.6667V13.3334C18.6667 13.687 18.8072 14.0261 19.0572 14.2762C19.3073 14.5262 19.6464 14.6667 20 14.6667C20.3537 14.6667 20.6928 14.5262 20.9428 14.2762C21.1929 14.0261 21.3334 13.687 21.3334 13.3334V12H24V25.3334Z" fill="#403C39"/>
</svg>
