<svg width="64" height="64" viewBox="0 0 64 64" fill="none" xmlns="http://www.w3.org/2000/svg">
<path d="M14.7219 19.4882H21.1978C22.994 19.4882 24.44 20.9342 24.44 22.7304V35.6992C24.44 37.4954 22.994 38.9414 21.1978 38.9414H14.7219C12.9258 38.9414 11.4797 37.4954 11.4797 35.6992V22.7304C11.4797 20.9342 12.9258 19.4882 14.7219 19.4882Z" fill="#7EDAD2"/>
<path opacity="0.99" d="M55.7533 8.71039C57.5523 8.71039 59.0006 10.1587 59.0006 11.9577V46.3502C59.0006 48.1492 57.5523 49.5975 55.7533 49.5975C53.9543 49.5975 52.506 48.1492 52.506 46.3502V11.9577C52.506 10.1587 53.9543 8.71039 55.7533 8.71039Z" fill="#7EDAD2"/>
<path d="M55.7565 7.71265C53.4795 7.71265 51.6206 9.52992 51.5279 11.785C46.0592 14.5147 36.638 19.7019 25.2031 21.3848C24.6347 19.7104 23.062 18.4902 21.2011 18.4902H14.7263C12.5901 18.4902 10.8261 20.0937 10.5407 22.1543C6.76725 22.1657 3.99958 25.3948 3.99957 29.217C3.99958 33.0445 6.75302 36.2715 10.5407 36.2738C10.8269 38.3343 12.5908 39.9418 14.7263 39.9418H21.2011C21.4218 39.9418 21.6381 39.9202 21.8495 39.8871L25.041 51.1022C25.425 52.4508 24.6691 53.808 23.3203 54.1921C21.9716 54.576 20.6144 53.8202 20.2304 52.4713L17.3338 42.2934C17.1824 41.763 16.6301 41.4554 16.0994 41.6059C15.5673 41.7565 15.2584 42.3104 15.41 42.8422L18.3085 53.0182C18.9863 55.3992 21.4859 56.7919 23.8671 56.114C26.2481 55.4361 27.6409 52.9365 26.9629 50.5553L25.6074 45.7915C27.0244 45.4923 28.1418 45.0116 28.9805 44.3638C30.0345 43.5497 30.6299 42.4847 30.8751 41.4379C31.1533 40.2503 31.0261 39.1236 30.795 38.1683C39.7025 40.4112 46.9948 44.3801 51.5415 46.6489C51.6986 48.844 53.523 50.5943 55.7564 50.5943C58.0922 50.5943 60.0007 48.6858 60.0007 46.3501V24.1524C59.9987 23.6032 59.5538 23.1585 59.0046 23.1563C58.4515 23.1533 58.0008 23.5994 57.9987 24.1524V46.3501C57.9987 47.6124 57.0187 48.5943 55.7564 48.5943C54.4941 48.5943 53.5123 47.6124 53.5123 46.3501V11.9569C53.5123 10.6946 54.4941 9.70489 55.7564 9.70489C57.0187 9.70489 57.9987 10.6946 57.9987 11.9569V20.1504C57.9957 20.7073 58.4477 21.1596 59.0046 21.1563C59.5576 21.1543 60.0039 20.7035 60.0007 20.1504V11.9569C60.0007 9.62115 58.0922 7.71265 55.7564 7.71265L55.7565 7.71265ZM51.5083 13.996V44.4302C46.031 41.6612 36.881 36.7885 25.4453 35.1077V23.3184C36.881 21.6376 46.031 16.765 51.5083 13.996ZM14.7263 20.4844H21.2011C22.4471 20.4844 23.4207 21.4493 23.4414 22.6895V35.7366C23.4209 36.9768 22.4471 37.9417 21.2011 37.9417H14.7263C13.4669 37.9417 12.4822 36.957 12.4822 35.6976V22.7286C12.4822 21.4691 13.4669 20.4844 14.7263 20.4844ZM10.4821 24.1427V34.2718C7.90695 34.2464 5.99961 32.066 5.99961 29.217C5.99961 26.354 7.89457 24.1472 10.4821 24.1427ZM25.1973 37.0609C26.3206 37.2262 27.4298 37.4174 28.5157 37.6468C28.8422 38.529 29.197 39.832 28.9278 40.9809C28.7712 41.6493 28.4512 42.2442 27.7579 42.7797C27.1973 43.2127 26.2628 43.5687 25.0469 43.8188C24.5979 42.2481 24.1503 40.677 23.7031 39.1058C24.3867 38.5953 24.9138 37.8841 25.1973 37.0609Z" fill="#424241"/>
<path d="M14.9993 28.2125C14.8673 28.212 14.7365 28.2376 14.6144 28.2879C14.4924 28.3382 14.3815 28.4121 14.2882 28.5054C14.1949 28.5988 14.1209 28.7096 14.0707 28.8317C14.0204 28.9537 13.9948 29.0845 13.9953 29.2165C13.9958 29.3479 14.0221 29.4778 14.0728 29.599C14.1235 29.7202 14.1976 29.8302 14.2908 29.9228C14.384 30.0153 14.4946 30.0886 14.6162 30.1384C14.7377 30.1882 14.8679 30.2136 14.9993 30.2131H20.9639C21.0953 30.2136 21.2255 30.1882 21.347 30.1384C21.4686 30.0886 21.5792 30.0153 21.6724 29.9228C21.7656 29.8302 21.8397 29.7202 21.8904 29.599C21.9411 29.4778 21.9675 29.3479 21.9679 29.2165C21.9684 29.0845 21.9428 28.9537 21.8925 28.8317C21.8423 28.7096 21.7683 28.5988 21.675 28.5054C21.5817 28.4121 21.4708 28.3382 21.3488 28.2879C21.2267 28.2376 21.0959 28.212 20.9639 28.2125H14.9993ZM14.9771 23.1928C14.8457 23.1922 14.7156 23.2176 14.594 23.2674C14.4724 23.3172 14.3619 23.3905 14.2687 23.483C14.1754 23.5756 14.1013 23.6856 14.0506 23.8068C13.9999 23.928 13.9736 24.058 13.9732 24.1893C13.9726 24.3213 13.9982 24.4521 14.0485 24.5741C14.0988 24.6962 14.1727 24.8071 14.266 24.9004C14.3594 24.9937 14.4703 25.0677 14.5923 25.1179C14.7143 25.1682 14.8451 25.1938 14.9771 25.1933H20.9492C21.0805 25.1928 21.2105 25.1665 21.3317 25.1158C21.4529 25.0651 21.5629 24.991 21.6555 24.8978C21.748 24.8045 21.8213 24.694 21.8711 24.5724C21.9209 24.4509 21.9463 24.3207 21.9458 24.1893C21.9448 23.9253 21.8396 23.6723 21.6529 23.4856C21.4662 23.2989 21.2132 23.1937 20.9492 23.1928H14.9771ZM14.9771 33.2397C14.8457 33.2392 14.7156 33.2646 14.594 33.3144C14.4724 33.3642 14.3619 33.4374 14.2687 33.53C14.1754 33.6225 14.1013 33.7325 14.0506 33.8537C13.9999 33.9749 13.9736 34.1049 13.9732 34.2363C13.9726 34.3683 13.9982 34.4991 14.0485 34.6211C14.0988 34.7431 14.1727 34.854 14.266 34.9473C14.3594 35.0407 14.4703 35.1146 14.5923 35.1649C14.7143 35.2151 14.8451 35.2408 14.9771 35.2402H20.9492C21.0805 35.2398 21.2105 35.2135 21.3317 35.1627C21.4529 35.112 21.5629 35.038 21.6555 34.9447C21.748 34.8515 21.8213 34.7409 21.8711 34.6194C21.9209 34.4978 21.9463 34.3676 21.9458 34.2363C21.9448 33.9723 21.8396 33.7193 21.6529 33.5326C21.4662 33.3459 21.2132 33.2406 20.9492 33.2397H14.9771Z" fill="#424241"/>
</svg>
