<svg width="26" height="38" viewBox="0 0 26 38" fill="none" xmlns="http://www.w3.org/2000/svg">
<path d="M10.1772 16.1772C7.83948 16.1772 5.46864 17.0654 3.59122 18.536C1.7138 20.0067 0.272156 22.1445 0.272156 24.6523V28.9003C0.272156 33.5757 4.08232 37.3754 8.7577 37.3754H17.2432C21.9186 37.3754 25.7288 33.5757 25.7288 28.9003V24.6523C25.7288 22.1445 24.2871 20.0067 22.4097 18.536C20.5323 17.0654 18.1614 16.1772 15.8238 16.1772C15.4526 16.1775 15.0965 16.3237 14.8322 16.5843L13.0057 18.4212L11.1687 16.5843C10.9044 16.3237 10.5483 16.1775 10.1772 16.1772ZM9.7388 19.1518L12.0037 21.4167C12.2686 21.68 12.627 21.8278 13.0005 21.8278C13.374 21.8278 13.7323 21.68 13.9972 21.4167L16.2621 19.1518C17.7412 19.2615 19.4065 19.7825 20.6667 20.7696C22.0519 21.8547 22.9003 23.2436 22.9003 24.6523V28.9003C22.9003 32.058 20.4009 34.5469 17.2432 34.5469H8.7577C5.60002 34.5469 3.10067 32.058 3.10067 28.9003V24.6523C3.10067 23.2436 3.94908 21.8547 5.33426 20.7696C6.59442 19.7825 8.25972 19.2615 9.7388 19.1518ZM12.9952 0.62561C9.49803 0.62561 6.63892 3.48472 6.63892 6.98194C6.63892 10.4792 9.49803 13.3487 12.9952 13.3487C16.4925 13.3487 19.362 10.4792 19.362 6.98194C19.362 3.48472 16.4925 0.62561 12.9952 0.62561ZM12.9952 3.44369C14.9642 3.44369 16.5335 5.01299 16.5335 6.98194C16.5335 8.95088 14.9642 10.5202 12.9952 10.5202C11.0263 10.5202 9.46743 8.95088 9.46743 6.98194C9.46743 5.01299 11.0263 3.44369 12.9952 3.44369Z" fill="#303030"/>
<path d="M20.6354 17.5654C20.3822 17.5607 20.1324 17.6241 19.912 17.7489C19.6917 17.8738 19.509 18.0555 19.3829 18.2751L16.951 22.3665L13.9972 19.4128C13.8672 19.2749 13.7108 19.1646 13.5373 19.0884C13.3639 19.0121 13.1768 18.9716 12.9873 18.969C12.7979 18.9665 12.6098 19.0021 12.4344 19.0737C12.2589 19.1452 12.0996 19.2513 11.966 19.3857C11.8324 19.52 11.7271 19.6799 11.6564 19.8557C11.5858 20.0315 11.5512 20.2197 11.5547 20.4092C11.5582 20.5987 11.5998 20.7855 11.6769 20.9586C11.754 21.1316 11.8652 21.2874 12.0037 21.4167L16.2412 25.6543C16.3938 25.8059 16.579 25.9206 16.7827 25.9899C16.9863 26.0591 17.2031 26.081 17.4164 26.0538C17.6298 26.0266 17.8341 25.9511 18.0139 25.8331C18.1937 25.715 18.3442 25.5575 18.454 25.3725L21.8148 19.7259C21.9469 19.5133 22.0203 19.2695 22.0274 19.0192C22.0345 18.769 21.975 18.5214 21.8551 18.3017C21.7351 18.082 21.559 17.8981 21.3447 17.7687C21.1304 17.6393 20.8856 17.5692 20.6354 17.5654Z" fill="#303030"/>
<path d="M5.3238 17.5758C5.07867 17.5878 4.84087 17.6633 4.63377 17.795C4.42668 17.9266 4.25742 18.11 4.14264 18.3269C4.02786 18.5438 3.97151 18.7869 3.97914 19.0322C3.98676 19.2775 4.0581 19.5165 4.18613 19.7259L7.54695 25.3725C7.65669 25.5575 7.80718 25.715 7.98697 25.8331C8.16676 25.9511 8.37112 26.0266 8.58448 26.0538C8.79785 26.081 9.0146 26.0591 9.21825 25.9899C9.42189 25.9207 9.60706 25.8059 9.75966 25.6543L13.9972 21.4168C14.1357 21.2875 14.2469 21.1317 14.324 20.9586C14.4011 20.7855 14.4427 20.5987 14.4462 20.4092C14.4497 20.2198 14.4151 20.0315 14.3445 19.8557C14.2738 19.6799 14.1685 19.5201 14.0349 19.3857C13.9013 19.2514 13.742 19.1453 13.5665 19.0737C13.3911 19.0021 13.203 18.9665 13.0136 18.9691C12.8241 18.9716 12.6371 19.0122 12.4636 19.0884C12.2901 19.1646 12.1337 19.2749 12.0037 19.4128L9.04992 22.3666L6.61803 18.2751C6.48722 18.051 6.29729 17.8673 6.06901 17.7439C5.84073 17.6206 5.58292 17.5624 5.3238 17.5758ZM17.2432 27.4808C16.8681 27.4808 16.5084 27.6298 16.2432 27.8951C15.978 28.1603 15.829 28.52 15.829 28.8951C15.829 29.2702 15.978 29.6299 16.2432 29.8951C16.5084 30.1604 16.8681 30.3094 17.2432 30.3094H18.6523C19.0273 30.3094 19.3871 30.1604 19.6523 29.8951C19.9175 29.6299 20.0665 29.2702 20.0665 28.8951C20.0665 28.52 19.9175 28.1603 19.6523 27.8951C19.3871 27.6298 19.0273 27.4808 18.6523 27.4808H17.2432Z" fill="#303030"/>
</svg>
