<svg width="36" height="38" viewBox="0 0 36 38" fill="none" xmlns="http://www.w3.org/2000/svg">
<path d="M7.37026 17.472C3.52568 17.472 0.359558 20.7511 0.359558 24.5956V30.2496C0.359558 34.0941 3.52568 37.3734 7.37026 37.3734H20.1478C23.9924 37.3734 27.1585 34.0941 27.1585 30.2496V24.5956C27.1585 20.7511 23.9924 17.472 20.1478 17.472H7.37026ZM7.37026 20.4119H20.1478C22.5224 20.4119 24.3316 22.221 24.3316 24.5956V30.2496C24.3316 32.6241 22.5224 34.5464 20.1478 34.5464H7.37026C4.99567 34.5464 3.18645 32.6241 3.18645 30.2496V24.5956C3.18645 22.221 4.99567 20.4119 7.37026 20.4119Z" fill="#303030"/>
<path d="M8.84027 23.1257C8.38796 23.239 8.04874 23.3516 7.82259 23.5781L4.99569 26.4051C4.43031 26.9705 4.43031 27.875 4.99569 28.4404L7.82259 31.2673C9.1795 32.6242 11.2149 30.589 9.85795 29.232L7.93566 27.4227L9.85795 25.6136C10.7626 24.709 10.0841 23.1259 8.84027 23.1259V23.1257ZM18.6779 23.1257C17.434 23.1257 16.7556 24.7088 17.6602 25.6134L19.5825 27.4226L17.6602 29.2317C16.4164 30.5886 18.3386 32.6241 19.6956 31.2672L22.5224 28.4402C23.0878 27.8748 23.0878 26.9703 22.5224 26.4049L19.6956 23.578C19.4694 23.352 19.1302 23.1255 18.6779 23.1255V23.1257Z" fill="#303030"/>
<path d="M13.0241 0.623535C9.17949 0.623535 6.01337 3.78963 6.01337 7.6342V18.9417C6.01337 20.8641 8.84026 20.8641 8.84026 18.9417V7.6342C8.84026 5.25965 10.6495 3.33735 13.0241 3.33735H28.6285C31.0031 3.33735 32.8123 5.25965 32.8123 7.6342V24.5955C32.8123 26.9701 31.0031 28.8925 28.6285 28.8925H25.8016C23.8793 28.8925 23.8793 31.7193 25.8016 31.7193H28.6285C32.4731 31.7193 35.6392 28.4401 35.6392 24.5955V7.6342C35.6392 3.78963 32.4731 0.623535 28.6285 0.623535H13.0241Z" fill="#303030"/>
<path d="M13.024 6.16412C11.2148 6.16412 11.2148 8.99108 13.024 8.99108H14.494C16.3032 8.99108 16.3032 6.16412 14.494 6.16412H13.024ZM20.1478 6.16412C18.2255 6.16412 18.2255 8.99108 20.1478 8.99108H28.6285C30.4377 8.99108 30.4377 6.16412 28.6285 6.16412H20.1478ZM27.1585 11.8179C25.3493 11.8179 25.3493 14.6448 27.1585 14.6448H28.6285C30.4377 14.6448 30.4377 11.8179 28.6285 11.8179H27.1585ZM15.8509 11.8179C14.0417 11.8179 14.0417 14.6448 15.8509 14.6448H21.5047C23.427 14.6448 23.427 11.8179 21.5047 11.8179H15.8509ZM14.381 23.1256C13.7025 23.2388 13.2502 23.691 13.1371 24.2563L11.6671 29.9101C10.9887 31.8324 14.0417 32.6238 14.381 30.5885L15.8509 24.9347C16.0771 24.0301 15.3986 23.1256 14.381 23.1256Z" fill="#303030"/>
</svg>
