<svg width="38" height="34" viewBox="0 0 38 34" fill="none" xmlns="http://www.w3.org/2000/svg">
<path d="M9.10128 0.0340958C4.42724 0.0340958 0.628601 3.84317 0.628601 8.5172V25.4834C0.628601 30.1575 4.42724 33.9665 9.10128 33.9665H28.8952C33.5692 33.9665 37.3679 30.1575 37.3679 25.4834V8.5172C37.3679 3.84317 33.5692 0.0340958 28.8952 0.0340958H9.10128ZM9.10128 2.8618H28.8952C32.052 2.8618 34.5506 5.36043 34.5506 8.5172V25.4834C34.5506 28.6402 32.052 31.1388 28.8952 31.1388H9.10128C5.9445 31.1388 3.44587 28.6402 3.44587 25.4834V8.5172C3.44587 5.36043 5.9445 2.8618 9.10128 2.8618Z" fill="#303030"/>
<path d="M2.03726 8.51721C1.66229 8.51721 1.30267 8.66617 1.03752 8.93132C0.772372 9.19647 0.623413 9.55609 0.623413 9.93106C0.623413 10.306 0.772372 10.6657 1.03752 10.9308C1.30267 11.196 1.66229 11.3449 2.03726 11.3449H35.9593C36.3342 11.3449 36.6939 11.196 36.959 10.9308C37.2242 10.6657 37.3731 10.306 37.3731 9.93106C37.3731 9.55609 37.2242 9.19647 36.959 8.93132C36.6939 8.66617 36.3342 8.51721 35.9593 8.51721H2.03726ZM28.7491 4.28087C28.3742 4.30027 28.0223 4.46782 27.7709 4.74666C27.5194 5.0255 27.3891 5.3928 27.4084 5.76776C27.4278 6.14272 27.5953 6.49462 27.8742 6.74607C28.153 6.99752 28.5203 7.12792 28.8952 7.10858H30.3039C30.4895 7.10858 30.6734 7.07201 30.8449 7.00095C31.0165 6.9299 31.1723 6.82576 31.3036 6.69447C31.4349 6.56318 31.539 6.40732 31.6101 6.23578C31.6811 6.06424 31.7177 5.88039 31.7177 5.69472C31.7177 5.50905 31.6811 5.3252 31.6101 5.15367C31.539 4.98213 31.4349 4.82627 31.3036 4.69498C31.1723 4.56369 31.0165 4.45955 30.8449 4.3885C30.6734 4.31744 30.4895 4.28087 30.3039 4.28087H28.8952C28.8466 4.27835 28.7978 4.27835 28.7491 4.28087H28.7491ZM21.6851 4.28087C21.3101 4.29886 20.9577 4.46507 20.7052 4.74294C20.4528 5.02081 20.3211 5.38757 20.3391 5.76255C20.3571 6.13752 20.5233 6.49 20.8011 6.74243C21.079 6.99486 21.4458 7.12656 21.8208 7.10858H23.2398C23.4255 7.10858 23.6093 7.07201 23.7809 7.00095C23.9524 6.9299 24.1083 6.82576 24.2396 6.69447C24.3709 6.56318 24.475 6.40732 24.546 6.23578C24.6171 6.06424 24.6537 5.88039 24.6537 5.69472C24.6537 5.50905 24.6171 5.3252 24.546 5.15367C24.475 4.98213 24.3709 4.82627 24.2396 4.69498C24.1083 4.56369 23.9524 4.45955 23.7809 4.3885C23.6093 4.31744 23.4255 4.28087 23.2398 4.28087H21.8208C21.7756 4.2787 21.7303 4.2787 21.6851 4.28087Z" fill="#303030"/>
<path d="M14.7359 8.49634C14.5502 8.4997 14.367 8.53962 14.1967 8.61382C14.0265 8.68802 13.8725 8.79504 13.7436 8.92876C13.6147 9.06248 13.5135 9.22029 13.4456 9.39316C13.3777 9.56604 13.3446 9.75059 13.3481 9.93627V32.5475C13.3481 32.7331 13.3847 32.917 13.4557 33.0885C13.5268 33.2601 13.6309 33.4159 13.7622 33.5472C13.8935 33.6785 14.0493 33.7826 14.2209 33.8537C14.3924 33.9247 14.5763 33.9613 14.7619 33.9613C14.9476 33.9613 15.1315 33.9247 15.303 33.8537C15.4745 33.7826 15.6304 33.6785 15.7617 33.5472C15.893 33.4159 15.9971 33.2601 16.0682 33.0885C16.1392 32.917 16.1758 32.7331 16.1758 32.5475V9.93627C16.1794 9.7462 16.1446 9.55735 16.0735 9.38104C16.0024 9.20472 15.8964 9.04456 15.762 8.91013C15.6276 8.7757 15.4674 8.66977 15.2911 8.59867C15.1148 8.52757 14.9259 8.49277 14.7359 8.49634Z" fill="#303030"/>
<path d="M14.7567 22.6557H35.9593C37.8444 22.6557 37.8444 19.828 35.9593 19.828H14.7567V22.6557Z" fill="#303030"/>
<path d="M25.3371 8.49634C25.1514 8.49971 24.9682 8.53963 24.798 8.61383C24.6277 8.68802 24.4737 8.79504 24.3449 8.92877C24.216 9.06249 24.1147 9.22029 24.0468 9.39317C23.979 9.56604 23.9458 9.75059 23.9493 9.93628V21.2367C23.9493 21.6116 24.0983 21.9713 24.3634 22.2364C24.6286 22.5015 24.9882 22.6505 25.3632 22.6505C25.7382 22.6505 26.0978 22.5015 26.3629 22.2364C26.6281 21.9713 26.777 21.6116 26.777 21.2367V9.93628C26.7806 9.7462 26.7458 9.55736 26.6747 9.38104C26.6036 9.20473 26.4977 9.04457 26.3632 8.91014C26.2288 8.77571 26.0686 8.66978 25.8923 8.59868C25.716 8.52758 25.5272 8.49277 25.3371 8.49634ZM7.69265 14.1726C7.31767 14.1726 6.95805 14.3216 6.6929 14.5867C6.42775 14.8519 6.2788 15.2115 6.2788 15.5865C6.2788 15.9614 6.42775 16.3211 6.6929 16.5862C6.95805 16.8514 7.31767 17.0003 7.69265 17.0003H9.10128C9.47626 17.0003 9.83588 16.8514 10.101 16.5862C10.3662 16.3211 10.5151 15.9614 10.5151 15.5865C10.5151 15.2115 10.3662 14.8519 10.101 14.5867C9.83588 14.3216 9.47626 14.1726 9.10128 14.1726H7.69265ZM7.54657 19.828C7.17161 19.8474 6.81972 20.015 6.56829 20.2938C6.31686 20.5727 6.1865 20.9399 6.20587 21.3149C6.22524 21.6899 6.39276 22.0418 6.67158 22.2932C6.9504 22.5447 7.31769 22.6751 7.69265 22.6557H9.10128C9.47626 22.6557 9.83588 22.5068 10.101 22.2416C10.3662 21.9765 10.5151 21.6168 10.5151 21.2419C10.5151 20.8669 10.3662 20.5073 10.101 20.2421C9.83588 19.977 9.47626 19.828 9.10128 19.828H7.69265C7.64399 19.8255 7.59523 19.8255 7.54657 19.828H7.54657ZM7.54657 25.4834C7.17161 25.5028 6.81972 25.6704 6.56829 25.9492C6.31686 26.2281 6.1865 26.5954 6.20587 26.9703C6.22524 27.3453 6.39276 27.6972 6.67158 27.9486C6.9504 28.2001 7.31769 28.3305 7.69265 28.3111H9.10128C9.47626 28.3111 9.83588 28.1622 10.101 27.897C10.3662 27.6319 10.5151 27.2723 10.5151 26.8973C10.5151 26.5223 10.3662 26.1627 10.101 25.8975C9.83588 25.6324 9.47626 25.4834 9.10128 25.4834H7.69265C7.64399 25.4809 7.59523 25.4809 7.54657 25.4834H7.54657ZM7.54657 4.28087C7.17161 4.30027 6.81972 4.46782 6.56829 4.74666C6.31686 5.0255 6.1865 5.3928 6.20587 5.76776C6.22524 6.14272 6.39276 6.49462 6.67158 6.74607C6.9504 6.99752 7.31769 7.12792 7.69265 7.10858H9.10128C9.28695 7.10858 9.4708 7.072 9.64234 7.00095C9.81388 6.9299 9.96974 6.82576 10.101 6.69447C10.2323 6.56318 10.3365 6.40732 10.4075 6.23578C10.4786 6.06424 10.5151 5.88039 10.5151 5.69472C10.5151 5.50905 10.4786 5.3252 10.4075 5.15367C10.3365 4.98213 10.2323 4.82627 10.101 4.69498C9.96974 4.56369 9.81388 4.45955 9.64234 4.3885C9.4708 4.31744 9.28695 4.28087 9.10128 4.28087H7.69265C7.64399 4.27835 7.59523 4.27835 7.54657 4.28087H7.54657Z" fill="#303030"/>
</svg>
